<svg width="38" height="40" viewBox="0 0 38 40" fill="none" xmlns="http://www.w3.org/2000/svg">
<rect width="38" height="40" rx="8" fill="#6BFF8F"/>
<path d="M19 30C17.6167 30 16.3167 29.7375 15.1 29.2125C13.8833 28.6875 12.825 27.975 11.925 27.075C11.025 26.175 10.3125 25.1167 9.7875 23.9C9.2625 22.6833 9 21.3833 9 20C9 18.6167 9.2625 17.3167 9.7875 16.1C10.3125 14.8833 11.025 13.825 11.925 12.925C12.825 12.025 13.8833 11.3125 15.1 10.7875C16.3167 10.2625 17.6167 10 19 10C20.0833 10 21.1083 10.1583 22.075 10.475C23.0417 10.7917 23.9333 11.2333 24.75 11.8L23.3 13.275C22.6667 12.875 21.9917 12.5625 21.275 12.3375C20.5583 12.1125 19.8 12 19 12C16.7833 12 14.8958 12.7792 13.3375 14.3375C11.7792 15.8958 11 17.7833 11 20C11 22.2167 11.7792 24.1042 13.3375 25.6625C14.8958 27.2208 16.7833 28 19 28C21.2167 28 23.1042 27.2208 24.6625 25.6625C26.2208 24.1042 27 22.2167 27 20C27 19.7 26.9833 19.4 26.95 19.1C26.9167 18.8 26.8667 18.5083 26.8 18.225L28.425 16.6C28.6083 17.1333 28.75 17.6833 28.85 18.25C28.95 18.8167 29 19.4 29 20C29 21.3833 28.7375 22.6833 28.2125 23.9C27.6875 25.1167 26.975 26.175 26.075 27.075C25.175 27.975 24.1167 28.6875 22.9 29.2125C21.6833 29.7375 20.3833 30 19 30ZM17.6 24.6L13.35 20.35L14.75 18.95L17.6 21.8L27.6 11.775L29 13.175L17.6 24.6Z" fill="#006E2F"/>
</svg>
