<svg width="696" height="484" viewBox="0 0 696 484" fill="none" xmlns="http://www.w3.org/2000/svg">
<g filter="url(#filter0_d_1_144)">
<rect x="32" y="20" width="632" height="420" rx="12" fill="white" shape-rendering="crispEdges"/>
<path d="M65.1833 73V59.9043H69.3031L71.4227 65.9162C71.5116 66.195 71.613 66.5577 71.7271 67.0044C71.8412 67.4511 71.9572 67.9321 72.0751 68.4476C72.193 68.9631 72.3033 69.4636 72.4061 69.9493C72.5088 70.4349 72.5936 70.8576 72.6602 71.2175H72.1345C72.2038 70.8657 72.2891 70.4484 72.3903 69.9654C72.4915 69.4825 72.601 68.9826 72.7189 68.4658C72.8368 67.949 72.9527 67.4652 73.0665 67.0145C73.1804 66.5638 73.2817 66.1977 73.3706 65.9162L75.4605 59.9043H79.5891V73H76.8965V66.8258C76.8965 66.5404 76.9012 66.1846 76.9104 65.7582C76.9197 65.3318 76.9311 64.8712 76.9446 64.3764C76.9581 63.8816 76.9709 63.3826 76.9828 62.8793C76.9948 62.3759 77.0021 61.9033 77.0048 61.4614H77.1787C77.0651 61.948 76.9403 62.4498 76.8042 62.9668C76.6681 63.4838 76.5317 63.9862 76.3951 64.474C76.2585 64.9617 76.1285 65.4086 76.005 65.8148C75.8815 66.2209 75.7755 66.5579 75.6872 66.8258L73.5198 73H71.258L69.0562 66.8258C68.9679 66.5606 68.8625 66.2269 68.7401 65.8249C68.6177 65.4228 68.4866 64.9792 68.3468 64.4942C68.2071 64.0091 68.0677 63.5067 67.9287 62.987C67.7896 62.4673 67.6564 61.9587 67.5289 61.4614H67.7393C67.7447 61.8844 67.7533 62.3449 67.7653 62.8429C67.7772 63.3408 67.7893 63.8392 67.8015 64.338C67.8137 64.8368 67.8251 65.3028 67.8357 65.7359C67.8463 66.1691 67.8516 66.5323 67.8516 66.8258V73H65.1833ZM86.2901 73.192C85.3046 73.192 84.4518 72.9802 83.7319 72.5568C83.0119 72.1333 82.4573 71.5415 82.0681 70.7814C81.6789 70.0212 81.4842 69.1373 81.4842 68.1295C81.4842 67.1136 81.6789 66.2249 82.0681 65.4634C82.4573 64.7019 83.0119 64.1094 83.7319 63.686C84.4518 63.2625 85.3046 63.0508 86.2901 63.0508C87.2784 63.0508 88.1316 63.2625 88.8497 63.686C89.5678 64.1094 90.1215 64.7019 90.5107 65.4634C90.9 66.2249 91.0946 67.1136 91.0946 68.1295C91.0946 69.1373 90.9 70.0212 90.5107 70.7814C90.1215 71.5415 89.5678 72.1333 88.8497 72.5568C88.1316 72.9802 87.2784 73.192 86.2901 73.192ZM86.2901 71.1172C86.7592 71.1172 87.1515 70.9868 87.4669 70.7261C87.7823 70.4653 88.0188 70.1087 88.1764 69.6563C88.334 69.2038 88.4128 68.6917 88.4128 68.12C88.4128 67.5423 88.334 67.0283 88.1764 66.5779C88.0188 66.1275 87.7823 65.7729 87.4669 65.514C87.1515 65.255 86.7592 65.1256 86.2901 65.1256C85.8206 65.1256 85.4286 65.255 85.1144 65.514C84.8001 65.7729 84.5641 66.1269 84.4065 66.5759C84.2489 67.025 84.1701 67.5397 84.1701 68.12C84.1701 68.6917 84.2489 69.2038 84.4065 69.6563C84.5641 70.1087 84.8001 70.4653 85.1144 70.7261C85.4286 70.9868 85.8206 71.1172 86.2901 71.1172ZM95.5672 67.3107V73H92.9315V63.1738H95.4202L95.4623 65.6269H95.3042C95.5619 64.8073 95.9534 64.173 96.4786 63.7241C97.0039 63.2752 97.6813 63.0508 98.5108 63.0508C99.1919 63.0508 99.7855 63.1989 100.291 63.4951C100.797 63.7913 101.19 64.2157 101.47 64.7683C101.75 65.3209 101.89 65.9815 101.89 66.7503V73H99.2543V67.2096C99.2543 66.5993 99.0969 66.1206 98.7821 65.7736C98.4673 65.4265 98.032 65.253 97.4761 65.253C97.1055 65.253 96.7762 65.3342 96.4882 65.4966C96.2002 65.6589 95.9747 65.8929 95.8117 66.1984C95.6487 66.504 95.5672 66.8748 95.5672 67.3107ZM109.02 63.1738V65.1824H103.19V63.1738H109.02ZM104.544 60.8359H107.179V70.1237C107.179 70.4365 107.249 70.6672 107.388 70.8155C107.527 70.9639 107.756 71.0381 108.074 71.0381C108.176 71.0381 108.318 71.0255 108.499 71.0005C108.679 70.9755 108.817 70.9513 108.911 70.9278L109.288 72.9045C108.994 72.9916 108.703 73.0522 108.414 73.0862C108.126 73.1203 107.849 73.1373 107.584 73.1373C106.598 73.1373 105.845 72.8981 105.324 72.4198C104.804 71.9415 104.544 71.2535 104.544 70.3559V60.8359ZM113.409 67.3107V73H110.773V59.9043H113.362V65.6269H113.146C113.404 64.8073 113.795 64.173 114.32 63.7241C114.846 63.2752 115.523 63.0508 116.353 63.0508C117.034 63.0508 117.628 63.1989 118.135 63.4951C118.643 63.7913 119.036 64.2157 119.316 64.7683C119.596 65.3209 119.736 65.9815 119.736 66.7503V73H117.096V67.2096C117.096 66.5993 116.939 66.1206 116.624 65.7736C116.309 65.4265 115.874 65.253 115.318 65.253C114.947 65.253 114.618 65.3342 114.33 65.4966C114.042 65.6589 113.817 65.8929 113.654 66.1984C113.491 66.504 113.409 66.8748 113.409 67.3107ZM124.615 59.9043V73H121.979V59.9043H124.615ZM126.974 76.4789L127.577 74.4908L127.901 74.5774C128.258 74.6689 128.573 74.6941 128.846 74.6528C129.12 74.6116 129.339 74.5002 129.506 74.3187C129.673 74.1371 129.773 73.8832 129.808 73.5569L129.885 73.029L126.194 63.1738H128.994L130.644 68.2748C130.848 68.919 131.012 69.5628 131.138 70.2064C131.263 70.8499 131.406 71.5225 131.566 72.2243H130.953C131.114 71.5225 131.272 70.8476 131.429 70.1996C131.586 69.5515 131.77 68.9099 131.98 68.2748L133.71 63.1738H136.477L132.304 74.1593C132.104 74.6871 131.849 75.1447 131.537 75.5323C131.226 75.9198 130.839 76.2187 130.376 76.4289C129.914 76.6391 129.353 76.7441 128.694 76.7441C128.346 76.7441 128.019 76.7189 127.713 76.6684C127.407 76.6179 127.16 76.5547 126.974 76.4789ZM147.007 73.1905C145.959 73.1905 145.047 73.0295 144.27 72.7074C143.493 72.3853 142.888 71.9084 142.454 71.2767C142.021 70.645 141.79 69.8649 141.763 68.9362H144.374C144.408 69.3778 144.539 69.7464 144.768 70.042C144.996 70.3376 145.302 70.5591 145.683 70.7064C146.065 70.8538 146.497 70.9275 146.978 70.9275C147.456 70.9275 147.873 70.8577 148.229 70.7181C148.585 70.5786 148.862 70.3828 149.06 70.131C149.258 69.8791 149.357 69.5881 149.357 69.2581C149.357 68.9565 149.268 68.7047 149.091 68.5027C148.914 68.3008 148.658 68.1275 148.322 67.9829C147.986 67.8383 147.58 67.7094 147.101 67.5963L145.662 67.2383C144.553 66.9679 143.685 66.5441 143.056 65.9669C142.427 65.3897 142.113 64.6248 142.113 63.6722C142.113 62.8833 142.326 62.193 142.753 61.6013C143.18 61.0096 143.764 60.5496 144.506 60.2211C145.247 59.8927 146.092 59.7285 147.04 59.7285C148.009 59.7285 148.854 59.8943 149.574 60.2259C150.295 60.5575 150.857 61.0171 151.26 61.6048C151.662 62.1925 151.871 62.8696 151.885 63.6362H149.291C149.24 63.1114 149.015 62.7048 148.617 62.4163C148.218 62.1277 147.684 61.9835 147.016 61.9835C146.561 61.9835 146.173 62.0489 145.851 62.1797C145.529 62.3104 145.284 62.4904 145.116 62.7196C144.948 62.9487 144.864 63.2098 144.864 63.5029C144.864 63.8239 144.962 64.0903 145.157 64.3022C145.353 64.514 145.611 64.6865 145.931 64.8196C146.251 64.9528 146.594 65.0633 146.961 65.1512L148.143 65.4403C148.694 65.5657 149.207 65.7342 149.682 65.9457C150.158 66.1572 150.574 66.4166 150.93 66.7239C151.287 67.0312 151.564 67.3951 151.763 67.8156C151.961 68.2361 152.06 68.721 152.06 69.2703C152.06 70.0642 151.86 70.7554 151.46 71.3439C151.059 71.9323 150.482 72.3872 149.729 72.7086C148.976 73.0299 148.068 73.1905 147.007 73.1905ZM156.674 73.1905C156.05 73.1905 155.49 73.0805 154.996 72.8603C154.502 72.6402 154.113 72.3125 153.83 71.8771C153.547 71.4418 153.406 70.9002 153.406 70.2525C153.406 69.7027 153.506 69.2441 153.707 68.8767C153.907 68.5093 154.182 68.2135 154.53 67.9892C154.878 67.7649 155.274 67.5942 155.717 67.4772C156.161 67.3602 156.625 67.2787 157.11 67.2328C157.677 67.1756 158.135 67.1218 158.484 67.0712C158.832 67.0207 159.088 66.9417 159.251 66.8342C159.414 66.7267 159.495 66.567 159.495 66.3553V66.312C159.495 66.0316 159.436 65.7944 159.317 65.6004C159.197 65.4064 159.024 65.2578 158.795 65.1545C158.566 65.0512 158.285 64.9995 157.951 64.9995C157.615 64.9995 157.322 65.0506 157.07 65.1528C156.818 65.255 156.612 65.3914 156.451 65.5621C156.291 65.7328 156.175 65.9245 156.105 66.1372L153.687 65.7359C153.854 65.1635 154.133 64.678 154.526 64.2794C154.919 63.8808 155.407 63.5764 155.991 63.3661C156.575 63.1559 157.231 63.0508 157.959 63.0508C158.487 63.0508 159 63.1133 159.498 63.2383C159.996 63.3632 160.443 63.5587 160.839 63.8248C161.235 64.0908 161.549 64.4348 161.782 64.8568C162.015 65.2788 162.131 65.7881 162.131 66.3848V73H159.631V71.6356H159.544C159.386 71.94 159.174 72.2091 158.911 72.4428C158.647 72.6764 158.33 72.8595 157.96 72.9919C157.59 73.1243 157.161 73.1905 156.674 73.1905ZM157.416 71.3422C157.831 71.3422 158.196 71.2596 158.51 71.0943C158.824 70.9291 159.07 70.7061 159.248 70.4253C159.425 70.1445 159.514 69.8318 159.514 69.4872V68.4239C159.434 68.4779 159.315 68.5286 159.159 68.5759C159.002 68.6232 158.827 68.6655 158.634 68.7029C158.442 68.7403 158.251 68.7727 158.063 68.8002C157.875 68.8276 157.708 68.8518 157.562 68.8725C157.238 68.9162 156.954 68.9904 156.708 69.0952C156.462 69.2 156.272 69.3401 156.136 69.5155C156 69.6909 155.932 69.9108 155.932 70.175C155.932 70.4294 155.996 70.6432 156.124 70.8163C156.253 70.9895 156.428 71.1204 156.65 71.2091C156.873 71.2978 157.128 71.3422 157.416 71.3422ZM167.013 59.9043V73H164.378V59.9043H167.013ZM173.7 73.192C172.697 73.192 171.832 72.9866 171.106 72.5758C170.379 72.165 169.821 71.5816 169.432 70.8258C169.042 70.0699 168.848 69.1738 168.848 68.1375C168.848 67.1266 169.041 66.2397 169.428 65.4768C169.815 64.714 170.362 64.1189 171.07 63.6917C171.778 63.2644 172.61 63.0508 173.567 63.0508C174.209 63.0508 174.809 63.153 175.366 63.3575C175.924 63.562 176.413 63.8704 176.834 64.2827C177.255 64.6949 177.584 65.213 177.82 65.8368C178.057 66.4605 178.175 67.1933 178.175 68.0351V68.7749H169.929V67.1162H176.891L175.659 67.561C175.659 67.0493 175.581 66.6047 175.424 66.2272C175.268 65.8496 175.037 65.5567 174.73 65.3485C174.423 65.1402 174.042 65.0361 173.586 65.0361C173.131 65.0361 172.744 65.1416 172.427 65.3525C172.109 65.5634 171.868 65.8496 171.702 66.211C171.536 66.5724 171.453 66.9833 171.453 67.4437V68.6115C171.453 69.1798 171.549 69.6573 171.739 70.0439C171.929 70.4305 172.197 70.7209 172.542 70.9152C172.886 71.1095 173.287 71.2066 173.742 71.2066C174.049 71.2066 174.329 71.1628 174.581 71.0752C174.832 70.9876 175.048 70.858 175.229 70.6862C175.41 70.5144 175.548 70.3026 175.643 70.0509L178.027 70.4918C177.868 71.0346 177.593 71.5085 177.201 71.9136C176.809 72.3186 176.318 72.633 175.728 72.8566C175.138 73.0802 174.462 73.192 173.7 73.192ZM183.883 73.192C183.092 73.192 182.392 73.0788 181.782 72.8524C181.172 72.6261 180.674 72.2982 180.289 71.8687C179.903 71.4393 179.653 70.9212 179.539 70.3144L181.996 69.8923C182.124 70.3491 182.349 70.6916 182.67 70.9199C182.992 71.1481 183.422 71.2622 183.96 71.2622C184.462 71.2622 184.859 71.1663 185.151 70.9746C185.443 70.7829 185.589 70.5403 185.589 70.2467C185.589 69.9892 185.485 69.7784 185.278 69.6146C185.07 69.4507 184.751 69.3241 184.318 69.235L182.626 68.8862C181.679 68.6911 180.971 68.3613 180.502 67.8967C180.034 67.4322 179.8 66.8321 179.8 66.0964C179.8 65.4674 179.971 64.9258 180.315 64.4714C180.658 64.017 181.138 63.6666 181.756 63.4203C182.373 63.1739 183.096 63.0508 183.923 63.0508C184.701 63.0508 185.374 63.1582 185.942 63.373C186.51 63.5878 186.969 63.8906 187.319 64.2815C187.669 64.6724 187.904 65.1357 188.025 65.6713L185.686 66.0832C185.583 65.7475 185.39 65.4732 185.106 65.2605C184.823 65.0477 184.442 64.9413 183.965 64.9413C183.531 64.9413 183.167 65.0326 182.874 65.2151C182.581 65.3976 182.434 65.6386 182.434 65.938C182.434 66.1842 182.529 66.3926 182.718 66.5633C182.907 66.734 183.234 66.8677 183.697 66.9645L185.463 67.3161C186.413 67.508 187.121 67.8228 187.585 68.2605C188.049 68.6981 188.281 69.2681 188.281 69.9704C188.281 70.6142 188.093 71.1777 187.717 71.6607C187.342 72.1438 186.823 72.5197 186.163 72.7886C185.502 73.0575 184.742 73.192 183.883 73.192ZM193.861 62.1308V59.9043H204.555V62.1308H200.555V73H197.869V62.1308H193.861ZM205.317 73V63.1738H207.872V64.8849H207.977C208.156 64.2793 208.457 63.8208 208.882 63.5096C209.307 63.1983 209.795 63.0427 210.346 63.0427C210.482 63.0427 210.628 63.0504 210.785 63.0657C210.941 63.0811 211.079 63.1028 211.198 63.1308V65.4858C211.081 65.4456 210.911 65.413 210.687 65.3879C210.463 65.3629 210.254 65.3504 210.059 65.3504C209.656 65.3504 209.295 65.4375 208.975 65.6116C208.656 65.7858 208.405 66.0268 208.224 66.3348C208.043 66.6427 207.953 67.0004 207.953 67.4077V73H205.317ZM216.652 73.192C215.649 73.192 214.784 72.9866 214.058 72.5758C213.331 72.165 212.773 71.5816 212.384 70.8258C211.994 70.0699 211.8 69.1738 211.8 68.1375C211.8 67.1266 211.993 66.2397 212.38 65.4768C212.767 64.714 213.315 64.1189 214.022 63.6917C214.73 63.2644 215.563 63.0508 216.52 63.0508C217.161 63.0508 217.761 63.153 218.318 63.3575C218.876 63.562 219.365 63.8704 219.786 64.2827C220.207 64.6949 220.536 65.213 220.772 65.8368C221.009 66.4605 221.127 67.1933 221.127 68.0351V68.7749H212.881V67.1162H219.843L218.611 67.561C218.611 67.0493 218.533 66.6047 218.377 66.2272C218.22 65.8496 217.989 65.5567 217.682 65.3485C217.376 65.1402 216.994 65.0361 216.539 65.0361C216.083 65.0361 215.696 65.1416 215.379 65.3525C215.061 65.5634 214.82 65.8496 214.654 66.211C214.488 66.5724 214.406 66.9833 214.406 67.4437V68.6115C214.406 69.1798 214.501 69.6573 214.691 70.0439C214.881 70.4305 215.149 70.7209 215.494 70.9152C215.839 71.1095 216.239 71.2066 216.694 71.2066C217.002 71.2066 217.281 71.1628 217.533 71.0752C217.784 70.9876 218.001 70.858 218.182 70.6862C218.363 70.5144 218.5 70.3026 218.595 70.0509L220.979 70.4918C220.82 71.0346 220.545 71.5085 220.153 71.9136C219.761 72.3186 219.27 72.633 218.68 72.8566C218.091 73.0802 217.414 73.192 216.652 73.192ZM225.566 67.3107V73H222.93V63.1738H225.419L225.461 65.6269H225.303C225.561 64.8073 225.952 64.173 226.478 63.7241C227.003 63.2752 227.68 63.0508 228.51 63.0508C229.191 63.0508 229.784 63.1989 230.29 63.4951C230.796 63.7913 231.189 64.2157 231.469 64.7683C231.749 65.3209 231.889 65.9815 231.889 66.7503V73H229.253V67.2096C229.253 66.5993 229.096 66.1206 228.781 65.7736C228.466 65.4265 228.031 65.253 227.475 65.253C227.105 65.253 226.775 65.3342 226.487 65.4966C226.199 65.6589 225.974 65.8929 225.811 66.1984C225.648 66.504 225.566 66.8748 225.566 67.3107ZM237.729 73.1635C236.978 73.1635 236.299 72.9689 235.693 72.5798C235.086 72.1907 234.607 71.62 234.256 70.8678C233.904 70.1156 233.728 69.1942 233.728 68.1038C233.728 66.9844 233.91 66.0501 234.272 65.3008C234.634 64.5515 235.118 63.9892 235.723 63.6138C236.328 63.2385 236.991 63.0508 237.714 63.0508C238.27 63.0508 238.734 63.1444 239.104 63.3316C239.474 63.5188 239.773 63.7497 240.001 64.0242C240.228 64.2987 240.399 64.5665 240.514 64.8278H240.599V59.9043H243.235V73H240.643V71.4273H240.514C240.393 71.6912 240.216 71.9562 239.985 72.2223C239.753 72.4885 239.454 72.7119 239.087 72.8925C238.72 73.0732 238.267 73.1635 237.729 73.1635ZM238.541 71.0507C238.99 71.0507 239.372 70.9272 239.687 70.6802C240.002 70.4331 240.242 70.0883 240.407 69.6455C240.572 69.2028 240.655 68.6862 240.655 68.0957C240.655 67.4989 240.573 66.9817 240.409 66.5441C240.246 66.1065 240.006 65.7671 239.691 65.5256C239.376 65.2842 238.992 65.1635 238.541 65.1635C238.081 65.1635 237.694 65.2883 237.381 65.5378C237.068 65.7873 236.831 66.1321 236.672 66.5724C236.513 67.0127 236.433 67.5204 236.433 68.0957C236.433 68.6705 236.513 69.1807 236.674 69.6264C236.835 70.072 237.072 70.4208 237.387 70.6728C237.702 70.9247 238.086 71.0507 238.541 71.0507Z" fill="#191C1D"/>
<rect x="458.02" y="59.5" width="12" height="12" rx="6" fill="#3525CD"/>
<path d="M482.613 69.6172C481.858 69.6172 481.184 69.4381 480.591 69.0799C479.998 68.7218 479.531 68.2081 479.19 67.5389C478.85 66.8696 478.68 66.0702 478.68 65.1406C478.68 64.2064 478.851 63.4045 479.192 62.7349C479.533 62.0654 480.001 61.5509 480.594 61.1915C481.188 60.8321 481.861 60.6523 482.613 60.6523C483.073 60.6523 483.505 60.7184 483.91 60.8504C484.314 60.9825 484.676 61.1756 484.995 61.4296C485.313 61.6836 485.578 61.9925 485.788 62.3562C485.998 62.7199 486.14 63.1334 486.214 63.5967H484.868C484.813 63.3163 484.717 63.0695 484.58 62.8563C484.443 62.6431 484.274 62.4626 484.074 62.3148C483.873 62.1669 483.65 62.0557 483.404 61.9811C483.159 61.9065 482.899 61.8692 482.626 61.8692C482.126 61.8692 481.678 61.9955 481.282 62.2481C480.887 62.5008 480.575 62.8702 480.348 63.3564C480.121 63.8427 480.008 64.4374 480.008 65.1406C480.008 65.8448 480.122 66.4399 480.352 66.9258C480.581 67.4117 480.893 67.7789 481.288 68.0275C481.683 68.276 482.128 68.4003 482.624 68.4003C482.897 68.4003 483.156 68.3622 483.402 68.286C483.647 68.2098 483.871 68.0986 484.072 67.9524C484.273 67.8062 484.442 67.6257 484.58 67.4108C484.717 67.196 484.814 66.95 484.871 66.6729H486.216C486.15 67.1048 486.016 67.4997 485.812 67.8576C485.609 68.2155 485.349 68.5265 485.034 68.7905C484.718 69.0546 484.356 69.2584 483.947 69.4019C483.538 69.5454 483.094 69.6172 482.613 69.6172ZM489.92 69.582C489.475 69.582 489.085 69.4886 488.749 69.3017C488.413 69.1147 488.152 68.8373 487.966 68.4695C487.78 68.1016 487.688 67.6489 487.688 67.1115V62.9492H488.976V66.9508C488.976 67.4224 489.1 67.7918 489.347 68.059C489.595 68.3262 489.932 68.4599 490.361 68.4599C490.652 68.4599 490.912 68.3962 491.141 68.269C491.37 68.1418 491.55 67.956 491.683 67.7117C491.815 67.4673 491.882 67.1737 491.882 66.8307V62.9492H493.175V69.5H491.942L491.933 67.8963H492.061C491.868 68.4885 491.588 68.9175 491.222 69.1833C490.856 69.4491 490.422 69.582 489.92 69.582ZM494.906 69.5V62.9492H496.154V64.0013H496.224C496.344 63.6454 496.555 63.3658 496.857 63.1625C497.158 62.9592 497.5 62.8576 497.883 62.8576C497.965 62.8576 498.06 62.8606 498.166 62.8666C498.272 62.8726 498.36 62.88 498.428 62.8889V64.1192C498.381 64.1051 498.291 64.09 498.158 64.074C498.025 64.0581 497.89 64.0501 497.753 64.0501C497.455 64.0501 497.188 64.113 496.952 64.239C496.715 64.3649 496.53 64.5383 496.396 64.7591C496.262 64.9798 496.195 65.2344 496.195 65.5229V69.5H494.906ZM499.699 69.5V62.9492H500.947V64.0013H501.017C501.137 63.6454 501.348 63.3658 501.65 63.1625C501.951 62.9592 502.293 62.8576 502.676 62.8576C502.758 62.8576 502.853 62.8606 502.959 62.8666C503.065 62.8726 503.153 62.88 503.221 62.8889V64.1192C503.174 64.1051 503.084 64.09 502.951 64.074C502.818 64.0581 502.683 64.0501 502.546 64.0501C502.248 64.0501 501.981 64.113 501.745 64.239C501.508 64.3649 501.323 64.5383 501.189 64.7591C501.055 64.9798 500.988 65.2344 500.988 65.5229V69.5H499.699ZM506.935 69.6364C506.29 69.6364 505.734 69.497 505.267 69.2182C504.799 68.9394 504.439 68.5481 504.188 68.0442C503.936 67.5403 503.81 66.9492 503.81 66.271C503.81 65.5984 503.933 65.0068 504.181 64.4962C504.428 63.9855 504.779 63.5863 505.231 63.2987C505.684 63.011 506.215 62.8672 506.823 62.8672C507.198 62.8672 507.56 62.9283 507.909 63.0506C508.258 63.1729 508.571 63.3651 508.848 63.6273C509.125 63.8895 509.345 64.2292 509.507 64.6464C509.669 65.0637 509.75 65.5677 509.75 66.1584V66.6158H504.527V65.6534H509.085L508.484 65.971C508.484 65.5709 508.421 65.2175 508.297 64.9109C508.172 64.6044 507.987 64.3648 507.742 64.1922C507.497 64.0196 507.192 63.9334 506.828 63.9334C506.463 63.9334 506.152 64.0212 505.894 64.197C505.636 64.3728 505.439 64.6044 505.303 64.8917C505.168 65.1791 505.1 65.4924 505.1 65.8317V66.4857C505.1 66.9349 505.177 67.3151 505.331 67.6263C505.485 67.9375 505.702 68.1726 505.98 68.3316C506.259 68.4907 506.581 68.5702 506.948 68.5702C507.188 68.5702 507.407 68.5358 507.603 68.4668C507.8 68.3979 507.969 68.2942 508.111 68.1557C508.253 68.0173 508.361 67.8459 508.437 67.6415L509.646 67.927C509.543 68.2664 509.368 68.5644 509.119 68.8211C508.871 69.0778 508.562 69.2778 508.192 69.4213C507.823 69.5647 507.404 69.6364 506.935 69.6364ZM512.449 65.6185V69.5H511.16V62.9492H512.389L512.402 64.5529H512.269C512.46 63.9671 512.736 63.5397 513.099 63.2707C513.462 63.0017 513.901 62.8672 514.416 62.8672C514.861 62.8672 515.251 62.9606 515.585 63.1476C515.919 63.3345 516.178 63.6111 516.364 63.9774C516.55 64.3437 516.643 64.7971 516.643 65.3377V69.5H515.354V65.4984C515.354 65.0268 515.231 64.6574 514.986 64.3902C514.74 64.123 514.403 63.9894 513.975 63.9894C513.684 63.9894 513.423 64.053 513.193 64.1802C512.962 64.3074 512.78 64.4922 512.648 64.7346C512.515 64.977 512.449 65.2716 512.449 65.6185ZM521.183 62.9492V63.9971H517.629V62.9492H521.183ZM518.586 61.3906H519.875V67.728C519.875 67.9929 519.93 68.1867 520.041 68.3095C520.151 68.4323 520.334 68.4937 520.59 68.4937C520.657 68.4937 520.745 68.4857 520.854 68.4698C520.963 68.4538 521.057 68.438 521.135 68.4223L521.363 69.4554C521.225 69.5007 521.078 69.5337 520.921 69.5543C520.765 69.5749 520.611 69.5852 520.461 69.5852C519.864 69.5852 519.403 69.4324 519.076 69.1269C518.75 68.8214 518.586 68.3905 518.586 67.8343V61.3906ZM528.312 69.5V66.0228L525.094 60.7695H526.652L528.296 63.5552C528.476 63.8575 528.636 64.1491 528.776 64.4299C528.915 64.7107 529.059 65.0593 529.208 65.4757H528.78C528.927 65.0529 529.07 64.6995 529.21 64.4155C529.35 64.1315 529.505 63.8447 529.675 63.5552L531.299 60.7695H532.85L529.649 66.0228V69.5H528.312ZM535.792 69.6364C535.148 69.6364 534.591 69.497 534.124 69.2182C533.657 68.9394 533.297 68.5481 533.045 68.0442C532.793 67.5403 532.667 66.9492 532.667 66.271C532.667 65.5984 532.791 65.0068 533.038 64.4962C533.286 63.9855 533.636 63.5863 534.089 63.2987C534.542 63.011 535.072 62.8672 535.681 62.8672C536.055 62.8672 536.417 62.9283 536.766 63.0506C537.115 63.1729 537.428 63.3651 537.706 63.6273C537.983 63.8895 538.202 64.2292 538.364 64.6464C538.526 65.0637 538.607 65.5677 538.607 66.1584V66.6158H533.384V65.6534H537.943L537.341 65.971C537.341 65.5709 537.279 65.2175 537.154 64.9109C537.029 64.6044 536.845 64.3648 536.599 64.1922C536.354 64.0196 536.049 63.9334 535.685 63.9334C535.321 63.9334 535.01 64.0212 534.752 64.197C534.493 64.3728 534.297 64.6044 534.161 64.8917C534.025 65.1791 533.957 65.4924 533.957 65.8317V66.4857C533.957 66.9349 534.034 67.3151 534.189 67.6263C534.343 67.9375 534.559 68.1726 534.838 68.3316C535.116 68.4907 535.439 68.5702 535.806 68.5702C536.046 68.5702 536.264 68.5358 536.461 68.4668C536.657 68.3979 536.826 68.2942 536.968 68.1557C537.11 68.0173 537.219 67.8459 537.294 67.6415L538.504 67.927C538.401 68.2664 538.225 68.5644 537.977 68.8211C537.728 69.0778 537.419 69.2778 537.05 69.4213C536.68 69.5647 536.261 69.6364 535.792 69.6364ZM541.968 69.6439C541.553 69.6439 541.178 69.5674 540.843 69.4143C540.508 69.2612 540.242 69.036 540.047 68.7387C539.851 68.4415 539.753 68.0777 539.753 67.6473C539.753 67.2751 539.825 66.97 539.968 66.7321C540.112 66.4943 540.305 66.3055 540.548 66.1658C540.791 66.0261 541.062 65.9211 541.361 65.8508C541.66 65.7806 541.965 65.7273 542.276 65.6911C542.662 65.6445 542.976 65.6065 543.218 65.577C543.459 65.5476 543.638 65.4988 543.753 65.4306C543.869 65.3624 543.927 65.2514 543.927 65.0976V65.0646C543.927 64.82 543.88 64.6129 543.785 64.4435C543.691 64.2741 543.551 64.1441 543.365 64.0534C543.179 63.9627 542.947 63.9174 542.67 63.9174C542.387 63.9174 542.143 63.9613 541.939 64.0491C541.734 64.1369 541.568 64.2486 541.44 64.3842C541.312 64.5198 541.216 64.662 541.154 64.8109L539.941 64.499C540.09 64.1062 540.303 63.7906 540.58 63.5523C540.858 63.314 541.176 63.1402 541.535 63.031C541.894 62.9218 542.266 62.8672 542.652 62.8672C542.915 62.8672 543.195 62.8987 543.492 62.9616C543.789 63.0245 544.068 63.1376 544.329 63.3009C544.59 63.4642 544.803 63.6949 544.968 63.9931C545.133 64.2913 545.216 64.6773 545.216 65.1511V69.5H543.969V68.603H543.902C543.818 68.7723 543.691 68.9369 543.523 69.0969C543.356 69.2569 543.143 69.388 542.886 69.4904C542.63 69.5927 542.323 69.6439 541.968 69.6439ZM542.254 68.6121C542.606 68.6121 542.908 68.5429 543.157 68.4047C543.406 68.2664 543.598 68.0847 543.731 67.8595C543.864 67.6343 543.931 67.3949 543.931 67.1412V66.2995C543.884 66.3453 543.796 66.3872 543.664 66.4251C543.533 66.4629 543.384 66.4964 543.218 66.5255C543.051 66.5547 542.889 66.5795 542.732 66.5999C542.574 66.6203 542.445 66.6368 542.345 66.6492C542.104 66.6797 541.882 66.732 541.68 66.8061C541.479 66.8802 541.318 66.9855 541.2 67.1221C541.081 67.2588 541.022 67.4398 541.022 67.6652C541.022 67.8728 541.075 68.0466 541.181 68.1866C541.288 68.3267 541.434 68.4326 541.619 68.5044C541.804 68.5762 542.015 68.6121 542.254 68.6121ZM546.949 69.5V62.9492H548.197V64.0013H548.267C548.387 63.6454 548.598 63.3658 548.9 63.1625C549.201 62.9592 549.543 62.8576 549.926 62.8576C550.008 62.8576 550.103 62.8606 550.209 62.8666C550.315 62.8726 550.403 62.88 550.471 62.8889V64.1192C550.424 64.1051 550.334 64.09 550.201 64.074C550.068 64.0581 549.933 64.0501 549.796 64.0501C549.498 64.0501 549.231 64.113 548.995 64.239C548.758 64.3649 548.573 64.5383 548.439 64.7591C548.305 64.9798 548.238 65.2344 548.238 65.5229V69.5H546.949Z" fill="#464555"/>
<rect x="558.72" y="59.5" width="12" height="12" rx="6" fill="#E2E8F0"/>
<path d="M579.686 69.5V60.7695H581.025V68.349H584.975V69.5H579.686ZM588.205 69.6439C587.79 69.6439 587.415 69.5674 587.08 69.4143C586.745 69.2612 586.48 69.036 586.284 68.7387C586.088 68.4415 585.99 68.0777 585.99 67.6473C585.99 67.2751 586.062 66.97 586.206 66.7321C586.349 66.4943 586.542 66.3055 586.785 66.1658C587.028 66.0261 587.299 65.9211 587.598 65.8508C587.897 65.7806 588.202 65.7273 588.513 65.6911C588.899 65.6445 589.213 65.6065 589.455 65.577C589.696 65.5476 589.875 65.4988 589.99 65.4306C590.106 65.3624 590.164 65.2514 590.164 65.0976V65.0646C590.164 64.82 590.117 64.6129 590.023 64.4435C589.928 64.2741 589.788 64.1441 589.602 64.0534C589.416 63.9627 589.184 63.9174 588.907 63.9174C588.624 63.9174 588.38 63.9613 588.176 64.0491C587.971 64.1369 587.805 64.2486 587.677 64.3842C587.549 64.5198 587.453 64.662 587.391 64.8109L586.178 64.499C586.327 64.1062 586.54 63.7906 586.817 63.5523C587.095 63.314 587.413 63.1402 587.772 63.031C588.131 62.9218 588.503 62.8672 588.889 62.8672C589.152 62.8672 589.432 62.8987 589.729 62.9616C590.026 63.0245 590.305 63.1376 590.566 63.3009C590.827 63.4642 591.04 63.6949 591.205 63.9931C591.37 64.2913 591.453 64.6773 591.453 65.1511V69.5H590.206V68.603H590.14C590.055 68.7723 589.928 68.9369 589.761 69.0969C589.593 69.2569 589.38 69.388 589.123 69.4904C588.867 69.5927 588.56 69.6439 588.205 69.6439ZM588.491 68.6121C588.843 68.6121 589.145 68.5429 589.394 68.4047C589.644 68.2664 589.835 68.0847 589.968 67.8595C590.101 67.6343 590.168 67.3949 590.168 67.1412V66.2995C590.122 66.3453 590.033 66.3872 589.902 66.4251C589.77 66.4629 589.621 66.4964 589.455 66.5255C589.288 66.5547 589.126 66.5795 588.969 66.5999C588.811 66.6203 588.682 66.6368 588.582 66.6492C588.341 66.6797 588.119 66.732 587.917 66.8061C587.716 66.8802 587.555 66.9855 587.437 67.1221C587.318 67.2588 587.259 67.4398 587.259 67.6652C587.259 67.8728 587.312 68.0466 587.419 68.1866C587.525 68.3267 587.671 68.4326 587.856 68.5044C588.041 68.5762 588.252 68.6121 588.491 68.6121ZM595.538 69.6364C595.063 69.6364 594.641 69.5676 594.273 69.4301C593.904 69.2926 593.601 69.0901 593.365 68.8228C593.128 68.5555 592.971 68.2295 592.893 67.8446L594.107 67.5907C594.198 67.9318 594.366 68.1837 594.611 68.3464C594.855 68.509 595.168 68.5904 595.548 68.5904C595.964 68.5904 596.295 68.504 596.541 68.3312C596.787 68.1584 596.91 67.9495 596.91 67.7046C596.91 67.4963 596.834 67.3238 596.682 67.1871C596.531 67.0504 596.299 66.9475 595.987 66.8782L594.884 66.6288C594.278 66.4917 593.826 66.2732 593.529 65.9734C593.233 65.6735 593.084 65.2882 593.084 64.8174C593.084 64.4277 593.193 64.0866 593.409 63.7942C593.626 63.5018 593.925 63.2742 594.306 63.1114C594.687 62.9486 595.124 62.8672 595.617 62.8672C596.09 62.8672 596.494 62.936 596.83 63.0736C597.166 63.2111 597.438 63.4021 597.648 63.6465C597.857 63.891 598.007 64.1755 598.099 64.5003L596.943 64.7559C596.86 64.525 596.718 64.3222 596.515 64.1473C596.313 63.9724 596.018 63.885 595.631 63.885C595.274 63.885 594.976 63.9651 594.738 64.1255C594.5 64.2858 594.38 64.4904 594.38 64.7393C594.38 64.9554 594.46 65.1313 594.619 65.2669C594.779 65.4025 595.037 65.511 595.396 65.5924L596.448 65.8268C597.055 65.9632 597.505 66.1783 597.798 66.4722C598.092 66.766 598.238 67.1407 598.238 67.5963C598.238 67.9946 598.124 68.347 597.896 68.6536C597.668 68.9601 597.351 69.2006 596.945 69.3749C596.539 69.5492 596.07 69.6364 595.538 69.6364ZM602.453 62.9492V63.9971H598.9V62.9492H602.453ZM599.857 61.3906H601.145V67.728C601.145 67.9929 601.201 68.1867 601.311 68.3095C601.421 68.4323 601.604 68.4937 601.86 68.4937C601.927 68.4937 602.015 68.4857 602.124 68.4698C602.233 68.4538 602.327 68.438 602.405 68.4223L602.634 69.4554C602.495 69.5007 602.348 69.5337 602.191 69.5543C602.035 69.5749 601.881 69.5852 601.731 69.5852C601.135 69.5852 600.673 69.4324 600.347 69.1269C600.02 68.8214 599.857 68.3905 599.857 67.8343V61.3906ZM609.582 69.5V66.0228L606.364 60.7695H607.922L609.566 63.5552C609.747 63.8575 609.907 64.1491 610.046 64.4299C610.186 64.7107 610.33 65.0593 610.478 65.4757H610.05C610.197 65.0529 610.34 64.6995 610.48 64.4155C610.62 64.1315 610.775 63.8447 610.945 63.5552L612.57 60.7695H614.121L610.919 66.0228V69.5H609.582ZM617.063 69.6364C616.418 69.6364 615.862 69.497 615.394 69.2182C614.927 68.9394 614.567 68.5481 614.315 68.0442C614.063 67.5403 613.937 66.9492 613.937 66.271C613.937 65.5984 614.061 65.0068 614.309 64.4962C614.556 63.9855 614.906 63.5863 615.359 63.2987C615.812 63.011 616.343 62.8672 616.951 62.8672C617.325 62.8672 617.687 62.9283 618.036 63.0506C618.386 63.1729 618.699 63.3651 618.976 63.6273C619.253 63.8895 619.473 64.2292 619.634 64.6464C619.796 65.0637 619.877 65.5677 619.877 66.1584V66.6158H614.654V65.6534H619.213L618.611 65.971C618.611 65.5709 618.549 65.2175 618.424 64.9109C618.3 64.6044 618.115 64.3648 617.87 64.1922C617.624 64.0196 617.32 63.9334 616.955 63.9334C616.591 63.9334 616.28 64.0212 616.022 64.197C615.764 64.3728 615.567 64.6044 615.431 64.8917C615.295 65.1791 615.227 65.4924 615.227 65.8317V66.4857C615.227 66.9349 615.305 67.3151 615.459 67.6263C615.613 67.9375 615.829 68.1726 616.108 68.3316C616.386 68.4907 616.709 68.5702 617.076 68.5702C617.316 68.5702 617.534 68.5358 617.731 68.4668C617.927 68.3979 618.097 68.2942 618.238 68.1557C618.38 68.0173 618.489 67.8459 618.565 67.6415L619.774 67.927C619.671 68.2664 619.495 68.5644 619.247 68.8211C618.998 69.0778 618.689 69.2778 618.32 69.4213C617.951 69.5647 617.531 69.6364 617.063 69.6364ZM623.238 69.6439C622.823 69.6439 622.448 69.5674 622.113 69.4143C621.778 69.2612 621.513 69.036 621.317 68.7387C621.121 68.4415 621.023 68.0777 621.023 67.6473C621.023 67.2751 621.095 66.97 621.239 66.7321C621.382 66.4943 621.575 66.3055 621.818 66.1658C622.061 66.0261 622.332 65.9211 622.631 65.8508C622.93 65.7806 623.235 65.7273 623.546 65.6911C623.932 65.6445 624.246 65.6065 624.488 65.577C624.729 65.5476 624.908 65.4988 625.024 65.4306C625.139 65.3624 625.197 65.2514 625.197 65.0976V65.0646C625.197 64.82 625.15 64.6129 625.056 64.4435C624.962 64.2741 624.821 64.1441 624.635 64.0534C624.449 63.9627 624.217 63.9174 623.94 63.9174C623.657 63.9174 623.413 63.9613 623.209 64.0491C623.004 64.1369 622.838 64.2486 622.71 64.3842C622.582 64.5198 622.487 64.662 622.424 64.8109L621.211 64.499C621.36 64.1062 621.573 63.7906 621.851 63.5523C622.128 63.314 622.446 63.1402 622.805 63.031C623.164 62.9218 623.536 62.8672 623.922 62.8672C624.185 62.8672 624.465 62.8987 624.762 62.9616C625.059 63.0245 625.338 63.1376 625.599 63.3009C625.86 63.4642 626.073 63.6949 626.238 63.9931C626.403 64.2913 626.486 64.6773 626.486 65.1511V69.5H625.239V68.603H625.173C625.088 68.7723 624.962 68.9369 624.794 69.0969C624.626 69.2569 624.413 69.388 624.157 69.4904C623.9 69.5927 623.594 69.6439 623.238 69.6439ZM623.524 68.6121C623.877 68.6121 624.178 68.5429 624.427 68.4047C624.677 68.2664 624.868 68.0847 625.001 67.8595C625.135 67.6343 625.201 67.3949 625.201 67.1412V66.2995C625.155 66.3453 625.066 66.3872 624.935 66.4251C624.804 66.4629 624.655 66.4964 624.488 66.5255C624.322 66.5547 624.159 66.5795 624.002 66.5999C623.844 66.6203 623.715 66.6368 623.615 66.6492C623.374 66.6797 623.152 66.732 622.951 66.8061C622.749 66.8802 622.589 66.9855 622.47 67.1221C622.351 67.2588 622.292 67.4398 622.292 67.6652C622.292 67.8728 622.345 68.0466 622.452 68.1866C622.558 68.3267 622.704 68.4326 622.889 68.5044C623.074 68.5762 623.286 68.6121 623.524 68.6121ZM628.22 69.5V62.9492H629.467V64.0013H629.537C629.658 63.6454 629.868 63.3658 630.17 63.1625C630.471 62.9592 630.813 62.8576 631.196 62.8576C631.279 62.8576 631.373 62.8606 631.479 62.8666C631.586 62.8726 631.673 62.88 631.741 62.8889V64.1192C631.694 64.1051 631.604 64.09 631.471 64.074C631.338 64.0581 631.203 64.0501 631.066 64.0501C630.768 64.0501 630.501 64.113 630.265 64.239C630.028 64.3649 629.843 64.5383 629.709 64.7591C629.575 64.9798 629.508 65.2344 629.508 65.5229V69.5H628.22Z" fill="#464555"/>
<g clip-path="url(#clip0_1_144)">
<path d="M72 303.68C118 295.147 164 273.813 210 239.68C256 205.547 302 197.013 348 214.08C394 231.147 440 214.08 486 162.88C532 111.68 578 103.147 624 137.28" stroke="#3525CD" stroke-width="3.94" stroke-linecap="round"/>
<path d="M72 322.433C118 318.167 164 305.367 210 284.033C256 262.7 302 258.433 348 271.233C394 284.033 440 275.5 486 245.633C532 215.767 578 211.5 624 232.833" stroke="#E2E8F0" stroke-width="2.955" stroke-linecap="round" stroke-dasharray="7.88 3.94"/>
<path opacity="0.1" d="M72 303.68C118 295.147 164 273.813 210 239.68C256 205.547 302 197.013 348 214.08C394 231.147 440 214.08 486 162.88C532 111.68 578 103.147 624 137.28V367.68H72V303.68Z" fill="url(#paint0_linear_1_144)"/>
</g>
<path d="M66.7692 395.098C66.0137 395.098 65.4183 394.9 64.983 394.505C64.5477 394.11 64.3301 393.546 64.3301 392.814V392.39H65.8221V392.836C65.8221 393.183 65.907 393.447 66.0769 393.626C66.2467 393.805 66.4775 393.895 66.7692 393.895C67.0595 393.895 67.2886 393.805 67.4567 393.626C67.6248 393.447 67.7089 393.182 67.7089 392.83V387.725H69.1851V392.809C69.1851 393.543 68.97 394.107 68.5399 394.504C68.1097 394.9 67.5195 395.098 66.7692 395.098ZM69.3875 395L71.8762 387.725H73.8258L76.3777 395H74.7208L73.5549 391.49C73.413 391.037 73.2702 390.541 73.1264 390.001C72.9826 389.462 72.8309 388.874 72.6712 388.238H72.9947C72.84 388.877 72.6953 389.468 72.5605 390.01C72.4258 390.553 72.2915 391.046 72.1576 391.49L71.0331 395H69.3875ZM70.9424 393.312V392.142H74.8228V393.312H70.9424ZM76.7726 395V387.725H78.436L80.7331 391.408C80.8499 391.597 80.9689 391.801 81.0901 392.022C81.2113 392.242 81.3345 392.487 81.4596 392.758C81.5846 393.028 81.7099 393.332 81.8353 393.671H81.6824C81.6601 393.4 81.6394 393.112 81.6202 392.807C81.6011 392.502 81.5855 392.21 81.5734 391.929C81.5614 391.648 81.5554 391.411 81.5554 391.217V387.725H83.079V395H81.4112L79.3256 391.661C79.1718 391.409 79.0294 391.166 78.8986 390.931C78.7677 390.696 78.6316 390.435 78.4903 390.149C78.349 389.862 78.1804 389.521 77.9844 389.125H78.1738C78.1953 389.476 78.2157 389.813 78.2348 390.137C78.254 390.46 78.2694 390.753 78.2811 391.014C78.2927 391.275 78.2986 391.489 78.2986 391.657V395H76.7726Z" fill="#464555"/>
<path d="M114.235 395V387.725H119.022V388.962H115.727V390.993H118.7V392.209H115.727V395H114.235ZM119.604 395V387.725H124.475V388.962H121.096V390.718H124.217V391.933H121.096V393.763H124.485V395H119.604ZM125.178 395V387.725H128.067C128.6 387.725 129.044 387.805 129.4 387.966C129.756 388.127 130.022 388.348 130.2 388.629C130.378 388.91 130.467 389.231 130.467 389.593C130.467 389.881 130.41 390.131 130.296 390.344C130.182 390.557 130.026 390.732 129.83 390.867C129.633 391.002 129.41 391.098 129.16 391.155V391.229C129.433 391.24 129.691 391.318 129.933 391.462C130.175 391.606 130.372 391.808 130.523 392.067C130.675 392.326 130.75 392.636 130.75 392.996C130.75 393.378 130.656 393.72 130.468 394.023C130.281 394.325 130.001 394.564 129.631 394.738C129.261 394.913 128.801 395 128.253 395H125.178ZM126.67 393.774H127.957C128.395 393.774 128.714 393.689 128.915 393.52C129.116 393.351 129.216 393.129 129.216 392.854C129.216 392.649 129.166 392.467 129.067 392.308C128.968 392.15 128.827 392.025 128.645 391.935C128.463 391.845 128.246 391.799 127.995 391.799H126.67V393.774ZM126.67 390.781H127.844C128.057 390.781 128.248 390.743 128.417 390.667C128.585 390.59 128.718 390.482 128.815 390.34C128.913 390.199 128.961 390.03 128.961 389.834C128.961 389.569 128.867 389.354 128.679 389.188C128.491 389.023 128.223 388.94 127.874 388.94H126.67V390.781Z" fill="#464555"/>
<path d="M161.622 395V387.725H163.911L165.088 391.065C165.138 391.219 165.194 391.421 165.257 391.669C165.321 391.917 165.385 392.185 165.451 392.471C165.516 392.757 165.578 393.035 165.635 393.305C165.692 393.575 165.739 393.81 165.776 394.01H165.484C165.522 393.814 165.57 393.582 165.626 393.314C165.682 393.046 165.743 392.768 165.808 392.481C165.874 392.194 165.938 391.925 166.002 391.675C166.065 391.424 166.121 391.221 166.17 391.065L167.332 387.725H169.625V395H168.129V391.57C168.129 391.411 168.132 391.214 168.137 390.977C168.142 390.74 168.149 390.484 168.156 390.209C168.164 389.934 168.171 389.657 168.177 389.377C168.184 389.098 168.188 388.835 168.189 388.59H168.286C168.223 388.86 168.154 389.139 168.078 389.426C168.002 389.713 167.927 389.992 167.851 390.263C167.775 390.534 167.703 390.783 167.634 391.008C167.565 391.234 167.507 391.421 167.457 391.57L166.253 395H164.997L163.774 391.57C163.725 391.423 163.666 391.237 163.598 391.014C163.53 390.79 163.457 390.544 163.38 390.275C163.302 390.005 163.224 389.726 163.147 389.437C163.07 389.148 162.996 388.866 162.925 388.59H163.042C163.045 388.825 163.05 389.081 163.056 389.357C163.063 389.634 163.07 389.911 163.077 390.188C163.083 390.465 163.09 390.724 163.096 390.964C163.101 391.205 163.104 391.407 163.104 391.57V395H161.622ZM170.019 395L172.508 387.725H174.457L177.009 395H175.352L174.186 391.49C174.045 391.037 173.902 390.541 173.758 390.001C173.614 389.462 173.462 388.874 173.303 388.238H173.626C173.472 388.877 173.327 389.468 173.192 390.01C173.057 390.553 172.923 391.046 172.789 391.49L171.665 395H170.019ZM171.574 393.312V392.142H175.454V393.312H171.574ZM177.404 395V387.725H180.243C180.795 387.725 181.265 387.822 181.652 388.018C182.039 388.213 182.335 388.489 182.539 388.844C182.742 389.199 182.844 389.615 182.844 390.092C182.844 390.572 182.741 390.986 182.535 391.332C182.328 391.678 182.029 391.943 181.636 392.128C181.243 392.312 180.767 392.405 180.208 392.405H178.286V391.197H179.971C180.275 391.197 180.525 391.155 180.721 391.072C180.918 390.989 181.065 390.865 181.162 390.702C181.259 390.538 181.307 390.335 181.307 390.092C181.307 389.846 181.259 389.639 181.162 389.471C181.065 389.302 180.918 389.174 180.72 389.086C180.523 388.998 180.272 388.954 179.967 388.954H178.896V395H177.404ZM181.452 395L179.684 391.689H181.298L183.106 395H181.452Z" fill="#464555"/>
<path d="M213.39 395L215.879 387.725H217.828L220.38 395H218.723L217.557 391.49C217.415 391.037 217.273 390.541 217.129 390.001C216.985 389.462 216.833 388.874 216.674 388.238H216.997C216.842 388.877 216.698 389.468 216.563 390.01C216.428 390.553 216.294 391.046 216.16 391.49L215.035 395H213.39ZM214.945 393.312V392.142H218.825V393.312H214.945ZM220.775 395V387.725H223.613C224.166 387.725 224.636 387.83 225.023 388.04C225.41 388.25 225.706 388.54 225.909 388.909C226.113 389.279 226.215 389.703 226.215 390.181C226.215 390.662 226.112 391.085 225.906 391.452C225.699 391.818 225.4 392.105 225.007 392.313C224.614 392.52 224.138 392.624 223.579 392.624H221.755V391.421H223.342C223.646 391.421 223.896 391.368 224.093 391.263C224.291 391.157 224.438 391.011 224.534 390.825C224.63 390.638 224.678 390.424 224.678 390.181C224.678 389.935 224.63 389.72 224.534 389.536C224.438 389.352 224.29 389.209 224.092 389.107C223.894 389.005 223.643 388.954 223.338 388.954H222.267V395H220.775ZM226.755 395V387.725H229.593C230.145 387.725 230.615 387.822 231.002 388.018C231.39 388.213 231.685 388.489 231.889 388.844C232.093 389.199 232.195 389.615 232.195 390.092C232.195 390.572 232.091 390.986 231.885 391.332C231.679 391.678 231.379 391.943 230.986 392.128C230.594 392.312 230.118 392.405 229.558 392.405H227.636V391.197H229.322C229.625 391.197 229.875 391.155 230.072 391.072C230.268 390.989 230.415 390.865 230.512 390.702C230.609 390.538 230.657 390.335 230.657 390.092C230.657 389.846 230.609 389.639 230.512 389.471C230.415 389.302 230.268 389.174 230.071 389.086C229.873 388.998 229.622 388.954 229.317 388.954H228.247V395H226.755ZM230.802 395L229.034 391.689H230.649L232.457 395H230.802Z" fill="#464555"/>
<path d="M263.156 395V387.725H265.445L266.623 391.065C266.672 391.219 266.728 391.421 266.792 391.669C266.855 391.917 266.92 392.185 266.985 392.471C267.051 392.757 267.112 393.035 267.169 393.305C267.226 393.575 267.273 393.81 267.31 394.01H267.018C267.057 393.814 267.104 393.582 267.16 393.314C267.217 393.046 267.277 392.768 267.343 392.481C267.408 392.194 267.473 391.925 267.536 391.675C267.599 391.424 267.656 391.221 267.705 391.065L268.866 387.725H271.16V395H269.664V391.57C269.664 391.411 269.666 391.214 269.671 390.977C269.677 390.74 269.683 390.484 269.69 390.209C269.698 389.934 269.705 389.657 269.712 389.377C269.718 389.098 269.722 388.835 269.724 388.59H269.821C269.757 388.86 269.688 389.139 269.612 389.426C269.537 389.713 269.461 389.992 269.385 390.263C269.309 390.534 269.237 390.783 269.168 391.008C269.1 391.234 269.041 391.421 268.992 391.57L267.788 395H266.531L265.308 391.57C265.259 391.423 265.2 391.237 265.132 391.014C265.064 390.79 264.992 390.544 264.914 390.275C264.836 390.005 264.759 389.726 264.682 389.437C264.604 389.148 264.53 388.866 264.459 388.59H264.576C264.579 388.825 264.584 389.081 264.591 389.357C264.597 389.634 264.604 389.911 264.611 390.188C264.618 390.465 264.624 390.724 264.63 390.964C264.636 391.205 264.639 391.407 264.639 391.57V395H263.156ZM271.554 395L274.042 387.725H275.992L278.544 395H276.887L275.721 391.49C275.579 391.037 275.436 390.541 275.292 390.001C275.149 389.462 274.997 388.874 274.837 388.238H275.161C275.006 388.877 274.861 389.468 274.727 390.01C274.592 390.553 274.458 391.046 274.324 391.49L273.199 395H271.554ZM273.108 393.312V392.142H276.989V393.312H273.108ZM280.427 395V392.264L277.733 387.725H279.48L280.709 389.991C280.835 390.22 280.947 390.446 281.045 390.669C281.143 390.893 281.244 391.16 281.348 391.472H281.021C281.121 391.158 281.219 390.888 281.314 390.663C281.41 390.438 281.517 390.214 281.637 389.991L282.827 387.725H284.566L281.914 392.264V395H280.427Z" fill="#464555"/>
<path d="M317.405 395.098C316.65 395.098 316.055 394.9 315.619 394.505C315.184 394.11 314.966 393.546 314.966 392.814V392.39H316.458V392.836C316.458 393.183 316.543 393.447 316.713 393.626C316.883 393.805 317.114 393.895 317.405 393.895C317.696 393.895 317.925 393.805 318.093 393.626C318.261 393.447 318.345 393.182 318.345 392.83V387.725H319.821V392.809C319.821 393.543 319.606 394.107 319.176 394.504C318.746 394.9 318.156 395.098 317.405 395.098ZM323.641 395.101C323.04 395.101 322.514 394.99 322.063 394.768C321.612 394.546 321.262 394.236 321.012 393.838C320.763 393.439 320.638 392.976 320.638 392.448V387.725H322.13V392.325C322.13 392.608 322.193 392.859 322.319 393.078C322.444 393.297 322.62 393.469 322.846 393.595C323.072 393.72 323.337 393.783 323.641 393.783C323.946 393.783 324.212 393.72 324.438 393.595C324.664 393.469 324.839 393.297 324.964 393.078C325.089 392.859 325.152 392.608 325.152 392.325V387.725H326.644V392.448C326.644 392.976 326.519 393.439 326.268 393.838C326.018 394.236 325.668 394.546 325.218 394.768C324.767 394.99 324.242 395.101 323.641 395.101ZM327.458 395V387.725H329.121L331.418 391.408C331.535 391.597 331.654 391.801 331.775 392.022C331.896 392.242 332.02 392.487 332.145 392.758C332.27 393.028 332.395 393.332 332.52 393.671H332.367C332.345 393.4 332.324 393.112 332.305 392.807C332.286 392.502 332.271 392.21 332.258 391.929C332.246 391.648 332.24 391.411 332.24 391.217V387.725H333.764V395H332.096L330.011 391.661C329.857 391.409 329.714 391.166 329.584 390.931C329.453 390.696 329.317 390.435 329.175 390.149C329.034 389.862 328.865 389.521 328.669 389.125H328.859C328.88 389.476 328.901 389.813 328.92 390.137C328.939 390.46 328.954 390.753 328.966 391.014C328.978 391.275 328.984 391.489 328.984 391.657V395H327.458Z" fill="#464555"/>
<path d="M367.033 395.098C366.277 395.098 365.682 394.9 365.247 394.505C364.811 394.11 364.594 393.546 364.594 392.814V392.39H366.086V392.836C366.086 393.183 366.171 393.447 366.341 393.626C366.51 393.805 366.741 393.895 367.033 393.895C367.323 393.895 367.552 393.805 367.72 393.626C367.888 393.447 367.973 393.182 367.973 392.83V387.725H369.449V392.809C369.449 393.543 369.234 394.107 368.804 394.504C368.373 394.9 367.783 395.098 367.033 395.098ZM373.268 395.101C372.667 395.101 372.141 394.99 371.69 394.768C371.239 394.546 370.889 394.236 370.64 393.838C370.39 393.439 370.266 392.976 370.266 392.448V387.725H371.758V392.325C371.758 392.608 371.821 392.859 371.946 393.078C372.072 393.297 372.248 393.469 372.473 393.595C372.699 393.72 372.964 393.783 373.268 393.783C373.574 393.783 373.84 393.72 374.066 393.595C374.291 393.469 374.467 393.297 374.592 393.078C374.717 392.859 374.779 392.608 374.779 392.325V387.725H376.271V392.448C376.271 392.976 376.146 393.439 375.896 393.838C375.646 394.236 375.295 394.546 374.845 394.768C374.395 394.99 373.869 395.101 373.268 395.101ZM377.085 395V387.725H378.577V393.763H381.714V395H377.085Z" fill="#464555"/>
<path d="M412.159 395L414.648 387.725H416.597L419.149 395H417.492L416.326 391.49C416.185 391.037 416.042 390.541 415.898 390.001C415.754 389.462 415.602 388.874 415.443 388.238H415.766C415.611 388.877 415.467 389.468 415.332 390.01C415.197 390.553 415.063 391.046 414.929 391.49L413.805 395H412.159ZM413.714 393.312V392.142H417.594V393.312H413.714ZM422.351 395.101C421.75 395.101 421.224 394.99 420.773 394.768C420.322 394.546 419.972 394.236 419.723 393.838C419.473 393.439 419.349 392.976 419.349 392.448V387.725H420.841V392.325C420.841 392.608 420.904 392.859 421.029 393.078C421.155 393.297 421.331 393.469 421.556 393.595C421.782 393.72 422.047 393.783 422.351 393.783C422.657 393.783 422.923 393.72 423.149 393.595C423.375 393.469 423.55 393.297 423.675 393.078C423.8 392.859 423.862 392.608 423.862 392.325V387.725H425.354V392.448C425.354 392.976 425.229 393.439 424.979 393.838C424.729 394.236 424.378 394.546 423.928 394.768C423.478 394.99 422.952 395.101 422.351 395.101ZM429.392 395.098C428.713 395.098 428.116 394.947 427.602 394.645C427.089 394.343 426.688 393.913 426.401 393.356C426.113 392.799 425.969 392.137 425.969 391.372C425.969 390.585 426.119 389.912 426.418 389.354C426.717 388.796 427.122 388.368 427.634 388.072C428.145 387.775 428.721 387.627 429.36 387.627C429.769 387.627 430.15 387.686 430.503 387.804C430.856 387.923 431.17 388.091 431.446 388.31C431.722 388.528 431.947 388.787 432.121 389.085C432.295 389.384 432.408 389.712 432.459 390.071H430.943C430.893 389.896 430.821 389.74 430.728 389.602C430.635 389.464 430.523 389.346 430.391 389.249C430.258 389.151 430.108 389.077 429.94 389.026C429.772 388.976 429.586 388.95 429.383 388.95C429.01 388.95 428.679 389.044 428.393 389.23C428.106 389.416 427.882 389.689 427.722 390.047C427.562 390.406 427.482 390.842 427.482 391.357C427.482 391.871 427.561 392.309 427.719 392.668C427.878 393.028 428.1 393.302 428.388 393.491C428.675 393.68 429.013 393.774 429.403 393.774C429.753 393.774 430.054 393.71 430.306 393.583C430.558 393.455 430.751 393.274 430.885 393.04C431.018 392.805 431.085 392.529 431.085 392.21L431.398 392.256H429.506V391.124H432.531V392.033C432.531 392.669 432.397 393.215 432.127 393.673C431.858 394.131 431.487 394.483 431.015 394.729C430.542 394.975 430.002 395.098 429.392 395.098Z" fill="#464555"/>
<path d="M466.185 395.106C465.603 395.106 465.096 395.016 464.664 394.837C464.233 394.659 463.897 394.394 463.656 394.043C463.415 393.692 463.287 393.258 463.272 392.742H464.722C464.741 392.988 464.814 393.192 464.941 393.357C465.068 393.521 465.238 393.644 465.45 393.726C465.662 393.808 465.902 393.849 466.169 393.849C466.434 393.849 466.666 393.81 466.864 393.732C467.062 393.655 467.216 393.546 467.326 393.406C467.436 393.266 467.491 393.105 467.491 392.921C467.491 392.754 467.441 392.614 467.343 392.502C467.245 392.389 467.102 392.293 466.916 392.213C466.729 392.132 466.503 392.061 466.237 391.998L465.438 391.799C464.822 391.649 464.339 391.413 463.99 391.093C463.641 390.772 463.466 390.347 463.466 389.818C463.466 389.38 463.585 388.996 463.822 388.667C464.059 388.339 464.384 388.083 464.796 387.901C465.207 387.718 465.677 387.627 466.203 387.627C466.742 387.627 467.211 387.719 467.611 387.903C468.012 388.087 468.324 388.343 468.548 388.669C468.771 388.996 468.887 389.372 468.895 389.798H467.454C467.426 389.506 467.301 389.28 467.079 389.12C466.858 388.96 466.561 388.88 466.19 388.88C465.937 388.88 465.721 388.916 465.543 388.989C465.364 389.061 465.228 389.161 465.134 389.289C465.041 389.416 464.994 389.561 464.994 389.724C464.994 389.902 465.049 390.05 465.157 390.168C465.266 390.286 465.409 390.381 465.587 390.455C465.765 390.529 465.956 390.591 466.16 390.64L466.816 390.8C467.122 390.87 467.407 390.963 467.671 391.081C467.935 391.198 468.167 391.343 468.365 391.513C468.563 391.684 468.717 391.886 468.827 392.12C468.937 392.353 468.993 392.623 468.993 392.928C468.993 393.369 468.881 393.753 468.659 394.08C468.436 394.407 468.116 394.66 467.697 394.838C467.279 395.017 466.775 395.106 466.185 395.106ZM469.563 395V387.725H474.435V388.962H471.055V390.718H474.177V391.933H471.055V393.763H474.444V395H469.563ZM475.138 395V387.725H477.976C478.528 387.725 478.998 387.83 479.385 388.04C479.773 388.25 480.068 388.54 480.272 388.909C480.476 389.279 480.578 389.703 480.578 390.181C480.578 390.662 480.474 391.085 480.268 391.452C480.062 391.818 479.762 392.105 479.369 392.313C478.977 392.52 478.501 392.624 477.941 392.624H476.118V391.421H477.705C478.008 391.421 478.258 391.368 478.456 391.263C478.653 391.157 478.8 391.011 478.896 390.825C478.992 390.638 479.04 390.424 479.04 390.181C479.04 389.935 478.992 389.72 478.896 389.536C478.8 389.352 478.653 389.209 478.455 389.107C478.257 389.005 478.005 388.954 477.7 388.954H476.63V395H475.138Z" fill="#464555"/>
<path d="M514.65 395.098C514.007 395.098 513.429 394.951 512.916 394.658C512.403 394.365 511.998 393.94 511.7 393.383C511.403 392.827 511.254 392.155 511.254 391.367C511.254 390.575 511.403 389.9 511.7 389.342C511.998 388.785 512.403 388.36 512.916 388.067C513.429 387.773 514.007 387.627 514.65 387.627C515.293 387.627 515.87 387.773 516.381 388.067C516.893 388.36 517.297 388.785 517.595 389.342C517.892 389.9 518.041 390.575 518.041 391.367C518.041 392.157 517.892 392.829 517.595 393.386C517.297 393.942 516.893 394.367 516.381 394.659C515.87 394.951 515.293 395.098 514.65 395.098ZM514.65 393.774C515.027 393.774 515.356 393.682 515.637 393.497C515.918 393.313 516.137 393.041 516.294 392.683C516.451 392.324 516.529 391.885 516.529 391.367C516.529 390.844 516.451 390.403 516.294 390.043C516.137 389.684 515.918 389.412 515.637 389.227C515.356 389.043 515.027 388.95 514.65 388.95C514.273 388.95 513.944 389.043 513.662 389.228C513.38 389.414 513.16 389.686 513.003 390.046C512.845 390.405 512.766 390.846 512.766 391.367C512.766 391.885 512.845 392.324 513.003 392.681C513.16 393.039 513.38 393.311 513.662 393.496C513.944 393.682 514.273 393.774 514.65 393.774ZM521.837 395.098C521.192 395.098 520.615 394.951 520.106 394.658C519.596 394.365 519.194 393.94 518.9 393.383C518.606 392.827 518.459 392.155 518.459 391.367C518.459 390.575 518.607 389.9 518.904 389.342C519.201 388.785 519.605 388.36 520.115 388.067C520.625 387.773 521.199 387.627 521.837 387.627C522.25 387.627 522.636 387.685 522.993 387.8C523.35 387.915 523.666 388.084 523.943 388.305C524.219 388.527 524.445 388.798 524.622 389.118C524.799 389.438 524.915 389.803 524.969 390.212H523.461C523.427 390.013 523.364 389.835 523.272 389.68C523.18 389.524 523.064 389.392 522.925 389.283C522.785 389.174 522.627 389.091 522.448 389.035C522.269 388.979 522.076 388.95 521.869 388.95C521.49 388.95 521.158 389.045 520.873 389.234C520.587 389.423 520.366 389.697 520.208 390.056C520.05 390.416 519.972 390.853 519.972 391.367C519.972 391.891 520.052 392.332 520.212 392.69C520.372 393.049 520.594 393.319 520.878 393.501C521.162 393.683 521.49 393.774 521.863 393.774C522.071 393.774 522.264 393.746 522.441 393.689C522.619 393.632 522.778 393.549 522.92 393.44C523.061 393.332 523.178 393.2 523.272 393.044C523.365 392.888 523.43 392.71 523.467 392.512H524.975C524.934 392.85 524.833 393.173 524.673 393.482C524.513 393.791 524.299 394.067 524.031 394.31C523.762 394.554 523.444 394.746 523.077 394.887C522.709 395.027 522.296 395.098 521.837 395.098ZM525.266 388.962V387.725H531.207V388.962H528.985V395H527.492V388.962H525.266Z" fill="#464555"/>
<path d="M562.06 395V387.725H563.723L566.02 391.408C566.137 391.597 566.256 391.801 566.377 392.022C566.499 392.242 566.622 392.487 566.747 392.758C566.872 393.028 566.997 393.332 567.123 393.671H566.97C566.947 393.4 566.927 393.112 566.908 392.807C566.888 392.502 566.873 392.21 566.861 391.929C566.849 391.648 566.843 391.411 566.843 391.217V387.725H568.366V395H566.699L564.613 391.661C564.459 391.409 564.317 391.166 564.186 390.931C564.055 390.696 563.919 390.435 563.778 390.149C563.636 389.862 563.468 389.521 563.272 389.125H563.461C563.483 389.476 563.503 389.813 563.522 390.137C563.541 390.46 563.557 390.753 563.568 391.014C563.58 391.275 563.586 391.489 563.586 391.657V395H562.06ZM572.379 395.098C571.736 395.098 571.158 394.951 570.645 394.658C570.132 394.365 569.727 393.94 569.43 393.383C569.132 392.827 568.983 392.155 568.983 391.367C568.983 390.575 569.132 389.9 569.43 389.342C569.727 388.785 570.132 388.36 570.645 388.067C571.158 387.773 571.736 387.627 572.379 387.627C573.022 387.627 573.599 387.773 574.111 388.067C574.622 388.36 575.026 388.785 575.324 389.342C575.622 389.9 575.771 390.575 575.771 391.367C575.771 392.157 575.622 392.829 575.324 393.386C575.026 393.942 574.622 394.367 574.111 394.659C573.599 394.951 573.022 395.098 572.379 395.098ZM572.379 393.774C572.756 393.774 573.085 393.682 573.366 393.497C573.648 393.313 573.867 393.041 574.023 392.683C574.18 392.324 574.258 391.885 574.258 391.367C574.258 390.844 574.18 390.403 574.023 390.043C573.867 389.684 573.648 389.412 573.366 389.227C573.085 389.043 572.756 388.95 572.379 388.95C572.003 388.95 571.673 389.043 571.391 389.228C571.109 389.414 570.889 389.686 570.732 390.046C570.574 390.405 570.496 390.846 570.496 391.367C570.496 391.885 570.574 392.324 570.732 392.681C570.889 393.039 571.109 393.311 571.391 393.496C571.673 393.682 572.003 393.774 572.379 393.774ZM578.117 395L575.567 387.725H577.224L578.388 391.234C578.527 391.678 578.668 392.167 578.811 392.699C578.954 393.231 579.105 393.812 579.263 394.442H578.943C579.098 393.804 579.244 393.221 579.381 392.693C579.518 392.165 579.654 391.678 579.787 391.234L580.912 387.725H582.558L580.064 395H578.117Z" fill="#464555"/>
<path d="M615.855 395H613.971V393.716H615.786C616.254 393.716 616.646 393.633 616.963 393.467C617.28 393.302 617.519 393.045 617.679 392.696C617.84 392.348 617.92 391.902 617.92 391.358C617.92 390.816 617.839 390.372 617.678 390.026C617.516 389.679 617.278 389.423 616.964 389.258C616.649 389.092 616.26 389.009 615.795 389.009H613.937V387.725H615.882C616.613 387.725 617.241 387.87 617.766 388.16C618.291 388.451 618.695 388.868 618.978 389.411C619.262 389.954 619.404 390.603 619.404 391.358C619.404 392.115 619.262 392.765 618.979 393.31C618.695 393.854 618.289 394.272 617.759 394.563C617.229 394.854 616.594 395 615.855 395ZM614.79 387.725V395H613.298V387.725H614.79ZM620.019 395V387.725H624.891V388.962H621.511V390.718H624.633V391.933H621.511V393.763H624.9V395H620.019ZM628.772 395.098C628.128 395.098 627.551 394.951 627.041 394.658C626.532 394.365 626.13 393.94 625.836 393.383C625.542 392.827 625.395 392.155 625.395 391.367C625.395 390.575 625.543 389.9 625.84 389.342C626.137 388.785 626.54 388.36 627.051 388.067C627.561 387.773 628.135 387.627 628.772 387.627C629.186 387.627 629.571 387.685 629.928 387.8C630.285 387.915 630.602 388.084 630.878 388.305C631.154 388.527 631.381 388.798 631.558 389.118C631.735 389.438 631.85 389.803 631.905 390.212H630.397C630.362 390.013 630.299 389.835 630.207 389.68C630.115 389.524 630 389.392 629.86 389.283C629.721 389.174 629.562 389.091 629.384 389.035C629.205 388.979 629.012 388.95 628.804 388.95C628.426 388.95 628.094 389.045 627.808 389.234C627.523 389.423 627.301 389.697 627.143 390.056C626.986 390.416 626.907 390.853 626.907 391.367C626.907 391.891 626.987 392.332 627.147 392.69C627.307 393.049 627.529 393.319 627.813 393.501C628.097 393.683 628.426 393.774 628.799 393.774C629.007 393.774 629.199 393.746 629.377 393.689C629.555 393.632 629.714 393.549 629.855 393.44C629.996 393.332 630.114 393.2 630.207 393.044C630.301 392.888 630.366 392.71 630.402 392.512H631.91C631.869 392.85 631.769 393.173 631.609 393.482C631.449 393.791 631.235 394.067 630.966 394.31C630.698 394.554 630.38 394.746 630.012 394.887C629.645 395.027 629.231 395.098 628.772 395.098Z" fill="#464555"/>
</g>
<defs>
<filter id="filter0_d_1_144" x="0" y="0" width="696" height="484" filterUnits="userSpaceOnUse" color-interpolation-filters="sRGB">
<feFlood flood-opacity="0" result="BackgroundImageFix"/>
<feColorMatrix in="SourceAlpha" type="matrix" values="0 0 0 0 0 0 0 0 0 0 0 0 0 0 0 0 0 0 127 0" result="hardAlpha"/>
<feOffset dy="12"/>
<feGaussianBlur stdDeviation="16"/>
<feComposite in2="hardAlpha" operator="out"/>
<feColorMatrix type="matrix" values="0 0 0 0 0.0980392 0 0 0 0 0.109804 0 0 0 0 0.113725 0 0 0 0.04 0"/>
<feBlend mode="normal" in2="BackgroundImageFix" result="effect1_dropShadow_1_144"/>
<feBlend mode="normal" in="SourceGraphic" in2="effect1_dropShadow_1_144" result="shape"/>
</filter>
<linearGradient id="paint0_linear_1_144" x1="72" y1="116.8" x2="72" y2="352" gradientUnits="userSpaceOnUse">
<stop stop-color="#3525CD"/>
<stop offset="1" stop-color="#3525CD" stop-opacity="0"/>
</linearGradient>
<clipPath id="clip0_1_144">
<rect width="552" height="240" fill="white" transform="translate(72 112)"/>
</clipPath>
</defs>
</svg>
