<svg width="33" height="31" viewBox="0 0 33 31" fill="none" xmlns="http://www.w3.org/2000/svg">
<g filter="url(#filter0_d_1_330)">
<path d="M27.0556 23L18.3056 14.95C17.6111 15.4611 16.8125 15.8657 15.9097 16.1639C15.0069 16.462 14.0463 16.6111 13.0278 16.6111C10.5046 16.6111 8.36921 15.8072 6.62153 14.1993C4.87384 12.5914 4 10.6269 4 8.30556C4 5.98426 4.87384 4.01968 6.62153 2.41181C8.36921 0.803935 10.5046 0 13.0278 0C15.5509 0 17.6863 0.803935 19.434 2.41181C21.1817 4.01968 22.0556 5.98426 22.0556 8.30556C22.0556 9.24259 21.8935 10.1264 21.5694 10.9569C21.2454 11.7875 20.8056 12.5222 20.25 13.1611L29 21.2111L27.0556 23ZM13.0278 14.0556C14.7639 14.0556 16.2396 13.4965 17.4549 12.3785C18.6701 11.2604 19.2778 9.90278 19.2778 8.30556C19.2778 6.70833 18.6701 5.35069 17.4549 4.23264C16.2396 3.11458 14.7639 2.55556 13.0278 2.55556C11.2917 2.55556 9.81597 3.11458 8.60069 4.23264C7.38542 5.35069 6.77778 6.70833 6.77778 8.30556C6.77778 9.90278 7.38542 11.2604 8.60069 12.3785C9.81597 13.4965 11.2917 14.0556 13.0278 14.0556Z" fill="#94A3B8"/>
</g>
<defs>
<filter id="filter0_d_1_330" x="0" y="0" width="33" height="31" filterUnits="userSpaceOnUse" color-interpolation-filters="sRGB">
<feFlood flood-opacity="0" result="BackgroundImageFix"/>
<feColorMatrix in="SourceAlpha" type="matrix" values="0 0 0 0 0 0 0 0 0 0 0 0 0 0 0 0 0 0 127 0" result="hardAlpha"/>
<feOffset dy="4"/>
<feGaussianBlur stdDeviation="2"/>
<feComposite in2="hardAlpha" operator="out"/>
<feColorMatrix type="matrix" values="0 0 0 0 0 0 0 0 0 0 0 0 0 0 0 0 0 0 0.25 0"/>
<feBlend mode="normal" in2="BackgroundImageFix" result="effect1_dropShadow_1_330"/>
<feBlend mode="normal" in="SourceGraphic" in2="effect1_dropShadow_1_330" result="shape"/>
</filter>
</defs>
</svg>
