<svg width="368" height="484" viewBox="0 0 368 484" fill="none" xmlns="http://www.w3.org/2000/svg">
<g filter="url(#filter0_d_1_185)">
<rect x="32" y="20" width="304" height="420" rx="12" fill="white" shape-rendering="crispEdges"/>
<path d="M72.2393 63.674C72.1882 63.1584 71.9688 62.7578 71.581 62.4723C71.1932 62.1868 70.6669 62.044 70.0021 62.044C69.5504 62.044 69.169 62.108 68.858 62.2358C68.5469 62.3594 68.3082 62.532 68.142 62.7536C67.9801 62.9751 67.8991 63.2266 67.8991 63.5078C67.8906 63.7422 67.9396 63.9467 68.0462 64.1214C68.157 64.2962 68.3082 64.4474 68.5 64.5753C68.6918 64.6989 68.9134 64.8075 69.1648 64.9013C69.4162 64.9908 69.6847 65.0675 69.9702 65.1314L71.1463 65.4126C71.7173 65.5405 72.2415 65.7109 72.7188 65.924C73.196 66.1371 73.6094 66.3991 73.9588 66.7102C74.3082 67.0213 74.5788 67.3878 74.7706 67.8097C74.9666 68.2315 75.0668 68.7152 75.071 69.2607C75.0668 70.0618 74.8622 70.7564 74.4574 71.3445C74.0568 71.9283 73.4773 72.3821 72.7188 72.706C71.9645 73.0256 71.0547 73.1854 69.9893 73.1854C68.9325 73.1854 68.0121 73.0234 67.228 72.6996C66.4482 72.3757 65.8388 71.8963 65.3999 71.2614C64.9652 70.6222 64.7372 69.8317 64.7159 68.8899H67.3942C67.424 69.3288 67.5497 69.6953 67.7713 69.9893C67.9972 70.2791 68.2976 70.4986 68.6726 70.6477C69.0518 70.7926 69.4801 70.8651 69.9574 70.8651C70.4261 70.8651 70.8331 70.7969 71.1783 70.6605C71.5277 70.5241 71.7983 70.3345 71.9901 70.0916C72.1818 69.8487 72.2777 69.5696 72.2777 69.2543C72.2777 68.9602 72.1903 68.7131 72.0156 68.5128C71.8452 68.3125 71.5938 68.142 71.2614 68.0014C70.9332 67.8608 70.5305 67.733 70.0533 67.6179L68.6278 67.2599C67.5241 66.9915 66.6527 66.5717 66.0135 66.0007C65.3743 65.4297 65.0568 64.6605 65.0611 63.6932C65.0568 62.9006 65.2678 62.2081 65.6939 61.6158C66.1243 61.0234 66.7145 60.5611 67.4645 60.2287C68.2145 59.8963 69.0668 59.7301 70.0213 59.7301C70.9929 59.7301 71.8409 59.8963 72.5653 60.2287C73.294 60.5611 73.8608 61.0234 74.2656 61.6158C74.6705 62.2081 74.8793 62.8942 74.892 63.674H72.2393ZM82.1039 63.1818V65.2273H76.1912V63.1818H82.1039ZM77.5336 60.8295H80.2566V69.983C80.2566 70.2344 80.2949 70.4304 80.3716 70.571C80.4483 70.7074 80.5549 70.8033 80.6912 70.8587C80.8319 70.9141 80.9938 70.9418 81.177 70.9418C81.3049 70.9418 81.4327 70.9311 81.5605 70.9098C81.6884 70.8842 81.7864 70.8651 81.8546 70.8523L82.2828 72.8786C82.1465 72.9212 81.9547 72.9702 81.7076 73.0256C81.4604 73.0852 81.16 73.1214 80.8063 73.1342C80.15 73.1598 79.5748 73.0724 79.0804 72.8722C78.5904 72.6719 78.209 72.3608 77.9363 71.9389C77.6635 71.517 77.5293 70.9844 77.5336 70.3409V60.8295ZM86.6774 73.1854C86.051 73.1854 85.4927 73.0767 85.0027 72.8594C84.5126 72.6378 84.1248 72.3118 83.8393 71.8814C83.5581 71.4467 83.4174 70.9055 83.4174 70.2578C83.4174 69.7124 83.5176 69.2543 83.7179 68.8835C83.9181 68.5128 84.1909 68.2145 84.536 67.9886C84.8812 67.7628 85.2733 67.5923 85.7122 67.4773C86.1554 67.3622 86.6199 67.2812 87.1056 67.2344C87.6767 67.1747 88.1369 67.1193 88.4863 67.0682C88.8358 67.0128 89.0893 66.9318 89.247 66.8253C89.4047 66.7187 89.4835 66.5611 89.4835 66.3523V66.3139C89.4835 65.9091 89.3556 65.5959 89.1 65.3743C88.8485 65.1527 88.4906 65.0419 88.0261 65.0419C87.536 65.0419 87.1461 65.1506 86.8564 65.3679C86.5666 65.581 86.3748 65.8494 86.2811 66.1733L83.7626 65.9688C83.8904 65.3722 84.1419 64.8565 84.5169 64.4219C84.8919 63.983 85.3755 63.6463 85.9679 63.4119C86.5645 63.1733 87.2548 63.054 88.0389 63.054C88.5843 63.054 89.1064 63.1179 89.6049 63.2457C90.1078 63.3736 90.5531 63.5717 90.9409 63.8402C91.3329 64.1087 91.6419 64.4538 91.8677 64.8757C92.0936 65.2933 92.2065 65.794 92.2065 66.3778V73H89.6241V71.6385H89.5474C89.3897 71.9453 89.1788 72.2159 88.9146 72.4503C88.6504 72.6804 88.3329 72.8615 87.9622 72.9936C87.5914 73.1214 87.1632 73.1854 86.6774 73.1854ZM87.4572 71.3061C87.8578 71.3061 88.2115 71.2273 88.5183 71.0696C88.8251 70.9077 89.0659 70.6903 89.2406 70.4176C89.4153 70.1449 89.5027 69.8359 89.5027 69.4908V68.4489C89.4174 68.5043 89.3002 68.5554 89.1511 68.6023C89.0062 68.6449 88.8422 68.6854 88.6589 68.7237C88.4757 68.7578 88.2924 68.7898 88.1092 68.8196C87.926 68.8452 87.7598 68.8686 87.6106 68.8899C87.291 68.9368 87.0119 69.0114 86.7733 69.1136C86.5346 69.2159 86.3493 69.3544 86.2172 69.5291C86.085 69.6996 86.019 69.9126 86.019 70.1683C86.019 70.5391 86.1532 70.8224 86.4217 71.0185C86.6944 71.2102 87.0396 71.3061 87.4572 71.3061ZM99.5414 63.1818V65.2273H93.6287V63.1818H99.5414ZM94.9711 60.8295H97.6941V69.983C97.6941 70.2344 97.7324 70.4304 97.8091 70.571C97.8858 70.7074 97.9924 70.8033 98.1287 70.8587C98.2694 70.9141 98.4313 70.9418 98.6145 70.9418C98.7424 70.9418 98.8702 70.9311 98.998 70.9098C99.1259 70.8842 99.2239 70.8651 99.2921 70.8523L99.7203 72.8786C99.584 72.9212 99.3922 72.9702 99.1451 73.0256C98.8979 73.0852 98.5975 73.1214 98.2438 73.1342C97.5875 73.1598 97.0123 73.0724 96.5179 72.8722C96.0279 72.6719 95.6465 72.3608 95.3738 71.9389C95.101 71.517 94.9668 70.9844 94.9711 70.3409V60.8295ZM105.684 73.1918C104.674 73.1918 103.805 72.9872 103.076 72.5781C102.352 72.1648 101.794 71.581 101.401 70.8267C101.009 70.0682 100.813 69.1712 100.813 68.1357C100.813 67.1257 101.009 66.2393 101.401 65.4766C101.794 64.7138 102.345 64.1193 103.057 63.6932C103.773 63.267 104.612 63.054 105.575 63.054C106.223 63.054 106.826 63.1584 107.384 63.3672C107.947 63.5717 108.437 63.8807 108.855 64.294C109.276 64.7074 109.605 65.2273 109.839 65.8537C110.073 66.4759 110.191 67.2045 110.191 68.0398V68.7876H101.9V67.1001H107.627C107.627 66.7081 107.542 66.3608 107.372 66.0582C107.201 65.7557 106.965 65.5192 106.662 65.3487C106.364 65.174 106.017 65.0866 105.62 65.0866C105.207 65.0866 104.84 65.1825 104.521 65.3743C104.205 65.5618 103.958 65.8153 103.779 66.1349C103.6 66.4503 103.509 66.8018 103.504 67.1896V68.794C103.504 69.2798 103.594 69.6996 103.773 70.0533C103.956 70.407 104.214 70.6797 104.546 70.8714C104.879 71.0632 105.273 71.1591 105.729 71.1591C106.031 71.1591 106.308 71.1165 106.56 71.0312C106.811 70.946 107.026 70.8182 107.205 70.6477C107.384 70.4773 107.521 70.2685 107.615 70.0213L110.133 70.1875C110.005 70.7926 109.743 71.321 109.347 71.7727C108.955 72.2202 108.448 72.5696 107.825 72.821C107.208 73.0682 106.494 73.1918 105.684 73.1918ZM118.085 66.544V68.7045H112.115V66.544H118.085ZM122.342 73L119.67 63.1818H122.425L123.946 69.7784H124.036L125.621 63.1818H128.325L129.936 69.7401H130.019L131.514 63.1818H134.263L131.597 73H128.715L127.027 66.8253H126.906L125.218 73H122.342ZM135.716 73V63.1818H138.439V73H135.716ZM137.083 61.9162C136.679 61.9162 136.331 61.782 136.042 61.5135C135.756 61.2408 135.613 60.9148 135.613 60.5355C135.613 60.1605 135.756 59.8388 136.042 59.5703C136.331 59.2976 136.679 59.1612 137.083 59.1612C137.488 59.1612 137.833 59.2976 138.119 59.5703C138.409 59.8388 138.554 60.1605 138.554 60.5355C138.554 60.9148 138.409 61.2408 138.119 61.5135C137.833 61.782 137.488 61.9162 137.083 61.9162ZM148.789 65.9815L146.296 66.1349C146.253 65.9219 146.162 65.7301 146.021 65.5597C145.881 65.3849 145.695 65.2464 145.465 65.1442C145.239 65.0376 144.969 64.9844 144.653 64.9844C144.231 64.9844 143.876 65.0739 143.586 65.2528C143.296 65.4276 143.151 65.6619 143.151 65.956C143.151 66.1903 143.245 66.3885 143.432 66.5504C143.62 66.7124 143.942 66.8423 144.398 66.9403L146.175 67.2983C147.129 67.4943 147.841 67.8097 148.309 68.2443C148.778 68.679 149.013 69.25 149.013 69.9574C149.013 70.6009 148.823 71.1655 148.444 71.6513C148.069 72.1371 147.553 72.5163 146.897 72.7891C146.245 73.0575 145.493 73.1918 144.64 73.1918C143.341 73.1918 142.305 72.9212 141.534 72.38C140.767 71.8345 140.317 71.093 140.185 70.1555L142.863 70.0149C142.944 70.4112 143.14 70.7138 143.452 70.9226C143.763 71.1271 144.161 71.2294 144.647 71.2294C145.124 71.2294 145.508 71.1378 145.797 70.9545C146.091 70.767 146.241 70.5263 146.245 70.2322C146.241 69.9851 146.136 69.7827 145.932 69.625C145.727 69.4631 145.412 69.3395 144.986 69.2543L143.285 68.9155C142.327 68.7237 141.613 68.3913 141.144 67.9183C140.68 67.4453 140.447 66.8423 140.447 66.1094C140.447 65.4787 140.618 64.9354 140.959 64.4794C141.304 64.0234 141.787 63.6719 142.41 63.4247C143.036 63.1776 143.769 63.054 144.608 63.054C145.849 63.054 146.824 63.3161 147.536 63.8402C148.252 64.3643 148.67 65.0781 148.789 65.9815ZM155.202 73.1918C154.192 73.1918 153.322 72.9872 152.594 72.5781C151.869 72.1648 151.311 71.581 150.919 70.8267C150.527 70.0682 150.331 69.1712 150.331 68.1357C150.331 67.1257 150.527 66.2393 150.919 65.4766C151.311 64.7138 151.863 64.1193 152.575 63.6932C153.29 63.267 154.13 63.054 155.093 63.054C155.741 63.054 156.344 63.1584 156.902 63.3672C157.464 63.5717 157.955 63.8807 158.372 64.294C158.794 64.7074 159.122 65.2273 159.357 65.8537C159.591 66.4759 159.708 67.2045 159.708 68.0398V68.7876H151.418V67.1001H157.145C157.145 66.7081 157.06 66.3608 156.889 66.0582C156.719 65.7557 156.482 65.5192 156.18 65.3487C155.881 65.174 155.534 65.0866 155.138 65.0866C154.724 65.0866 154.358 65.1825 154.038 65.3743C153.723 65.5618 153.476 65.8153 153.297 66.1349C153.118 66.4503 153.026 66.8018 153.022 67.1896V68.794C153.022 69.2798 153.112 69.6996 153.29 70.0533C153.474 70.407 153.732 70.6797 154.064 70.8714C154.396 71.0632 154.79 71.1591 155.246 71.1591C155.549 71.1591 155.826 71.1165 156.077 71.0312C156.329 70.946 156.544 70.8182 156.723 70.6477C156.902 70.4773 157.038 70.2685 157.132 70.0213L159.651 70.1875C159.523 70.7926 159.261 71.321 158.864 71.7727C158.472 72.2202 157.965 72.5696 157.343 72.821C156.725 73.0682 156.011 73.1918 155.202 73.1918ZM170.343 73H165.702V59.9091H170.381C171.698 59.9091 172.831 60.1712 173.782 60.6953C174.732 61.2152 175.463 61.9631 175.974 62.9389C176.49 63.9148 176.748 65.0824 176.748 66.4418C176.748 67.8054 176.49 68.9773 175.974 69.9574C175.463 70.9375 174.728 71.6896 173.769 72.2138C172.814 72.7379 171.672 73 170.343 73ZM168.47 70.6286H170.228C171.046 70.6286 171.734 70.4837 172.292 70.1939C172.855 69.8999 173.277 69.446 173.558 68.8324C173.844 68.2145 173.986 67.4176 173.986 66.4418C173.986 65.4744 173.844 64.6839 173.558 64.0703C173.277 63.4567 172.857 63.005 172.299 62.7152C171.741 62.4254 171.052 62.2805 170.234 62.2805H168.47V70.6286ZM178.747 73V63.1818H181.47V73H178.747ZM180.115 61.9162C179.71 61.9162 179.363 61.782 179.073 61.5135C178.787 61.2408 178.645 60.9148 178.645 60.5355C178.645 60.1605 178.787 59.8388 179.073 59.5703C179.363 59.2976 179.71 59.1612 180.115 59.1612C180.52 59.1612 180.865 59.2976 181.15 59.5703C181.44 59.8388 181.585 60.1605 181.585 60.5355C181.585 60.9148 181.44 61.2408 181.15 61.5135C180.865 61.782 180.52 61.9162 180.115 61.9162ZM191.82 65.9815L189.327 66.1349C189.285 65.9219 189.193 65.7301 189.052 65.5597C188.912 65.3849 188.726 65.2464 188.496 65.1442C188.27 65.0376 188 64.9844 187.684 64.9844C187.263 64.9844 186.907 65.0739 186.617 65.2528C186.327 65.4276 186.182 65.6619 186.182 65.956C186.182 66.1903 186.276 66.3885 186.464 66.5504C186.651 66.7124 186.973 66.8423 187.429 66.9403L189.206 67.2983C190.16 67.4943 190.872 67.8097 191.341 68.2443C191.809 68.679 192.044 69.25 192.044 69.9574C192.044 70.6009 191.854 71.1655 191.475 71.6513C191.1 72.1371 190.584 72.5163 189.928 72.7891C189.276 73.0575 188.524 73.1918 187.672 73.1918C186.372 73.1918 185.336 72.9212 184.565 72.38C183.798 71.8345 183.349 71.093 183.216 70.1555L185.895 70.0149C185.976 70.4112 186.172 70.7138 186.483 70.9226C186.794 71.1271 187.192 71.2294 187.678 71.2294C188.155 71.2294 188.539 71.1378 188.829 70.9545C189.123 70.767 189.272 70.5263 189.276 70.2322C189.272 69.9851 189.167 69.7827 188.963 69.625C188.758 69.4631 188.443 69.3395 188.017 69.2543L186.317 68.9155C185.358 68.7237 184.644 68.3913 184.175 67.9183C183.711 67.4453 183.479 66.8423 183.479 66.1094C183.479 65.4787 183.649 64.9354 183.99 64.4794C184.335 64.0234 184.819 63.6719 185.441 63.4247C186.067 63.1776 186.8 63.054 187.64 63.054C188.88 63.054 189.856 63.3161 190.567 63.8402C191.283 64.3643 191.701 65.0781 191.82 65.9815ZM198.981 63.1818V65.2273H193.068V63.1818H198.981ZM194.411 60.8295H197.134V69.983C197.134 70.2344 197.172 70.4304 197.249 70.571C197.325 70.7074 197.432 70.8033 197.568 70.8587C197.709 70.9141 197.871 70.9418 198.054 70.9418C198.182 70.9418 198.31 70.9311 198.438 70.9098C198.565 70.8842 198.663 70.8651 198.732 70.8523L199.16 72.8786C199.023 72.9212 198.832 72.9702 198.585 73.0256C198.337 73.0852 198.037 73.1214 197.683 73.1342C197.027 73.1598 196.452 73.0724 195.957 72.8722C195.467 72.6719 195.086 72.3608 194.813 71.9389C194.54 71.517 194.406 70.9844 194.411 70.3409V60.8295ZM200.755 73V63.1818H203.395V64.8949H203.497C203.676 64.2855 203.976 63.8253 204.398 63.5142C204.82 63.1989 205.306 63.0412 205.855 63.0412C205.992 63.0412 206.139 63.0497 206.297 63.0668C206.454 63.0838 206.593 63.1072 206.712 63.1371V65.5533C206.584 65.5149 206.407 65.4808 206.181 65.451C205.956 65.4212 205.749 65.4062 205.561 65.4062C205.161 65.4062 204.803 65.4936 204.488 65.6683C204.176 65.8388 203.929 66.0774 203.746 66.3842C203.567 66.6911 203.478 67.0447 203.478 67.4453V73H200.755ZM208.12 73V63.1818H210.843V73H208.12ZM209.488 61.9162C209.083 61.9162 208.736 61.782 208.446 61.5135C208.16 61.2408 208.018 60.9148 208.018 60.5355C208.018 60.1605 208.16 59.8388 208.446 59.5703C208.736 59.2976 209.083 59.1612 209.488 59.1612C209.893 59.1612 210.238 59.2976 210.523 59.5703C210.813 59.8388 210.958 60.1605 210.958 60.5355C210.958 60.9148 210.813 61.2408 210.523 61.5135C210.238 61.782 209.893 61.9162 209.488 61.9162ZM213.075 73V59.9091H215.798V64.831H215.881C216.001 64.5668 216.173 64.2983 216.399 64.0256C216.629 63.7486 216.928 63.5185 217.294 63.3352C217.665 63.1477 218.125 63.054 218.675 63.054C219.391 63.054 220.051 63.2415 220.656 63.6165C221.261 63.9872 221.745 64.5476 222.107 65.2976C222.469 66.0433 222.651 66.9787 222.651 68.1037C222.651 69.1989 222.474 70.1236 222.12 70.8778C221.771 71.6278 221.293 72.1967 220.688 72.5845C220.087 72.968 219.414 73.1598 218.668 73.1598C218.14 73.1598 217.69 73.0724 217.32 72.8977C216.953 72.723 216.653 72.5036 216.418 72.2393C216.184 71.9709 216.005 71.7003 215.881 71.4276H215.76V73H213.075ZM215.741 68.0909C215.741 68.6747 215.822 69.1839 215.984 69.6186C216.146 70.0533 216.38 70.392 216.687 70.6349C216.994 70.8736 217.366 70.9929 217.805 70.9929C218.249 70.9929 218.624 70.8714 218.93 70.6286C219.237 70.3814 219.469 70.0405 219.627 69.6058C219.789 69.1669 219.87 68.6619 219.87 68.0909C219.87 67.5241 219.791 67.0256 219.634 66.5952C219.476 66.1648 219.244 65.8281 218.937 65.5852C218.63 65.3423 218.253 65.2209 217.805 65.2209C217.362 65.2209 216.987 65.3381 216.68 65.5724C216.378 65.8068 216.146 66.1392 215.984 66.5696C215.822 67 215.741 67.5071 215.741 68.0909ZM230.764 68.8196V63.1818H233.487V73H230.872V71.2166H230.77C230.548 71.7919 230.18 72.2543 229.664 72.6037C229.153 72.9531 228.529 73.1278 227.791 73.1278C227.135 73.1278 226.558 72.9787 226.059 72.6804C225.561 72.3821 225.171 71.9581 224.889 71.4084C224.612 70.8587 224.472 70.2003 224.468 69.4332V63.1818H227.191V68.9474C227.195 69.527 227.35 69.9851 227.657 70.3217C227.964 70.6584 228.375 70.8267 228.891 70.8267C229.219 70.8267 229.526 70.7521 229.811 70.603C230.097 70.4496 230.327 70.2237 230.502 69.9254C230.681 69.6271 230.768 69.2585 230.764 68.8196ZM240.887 63.1818V65.2273H234.974V63.1818H240.887ZM236.317 60.8295H239.04V69.983C239.04 70.2344 239.078 70.4304 239.155 70.571C239.232 70.7074 239.338 70.8033 239.474 70.8587C239.615 70.9141 239.777 70.9418 239.96 70.9418C240.088 70.9418 240.216 70.9311 240.344 70.9098C240.472 70.8842 240.57 70.8651 240.638 70.8523L241.066 72.8786C240.93 72.9212 240.738 72.9702 240.491 73.0256C240.244 73.0852 239.943 73.1214 239.589 73.1342C238.933 73.1598 238.358 73.0724 237.864 72.8722C237.374 72.6719 236.992 72.3608 236.719 71.9389C236.447 71.517 236.313 70.9844 236.317 70.3409V60.8295ZM242.661 73V63.1818H245.384V73H242.661ZM244.029 61.9162C243.624 61.9162 243.277 61.782 242.987 61.5135C242.701 61.2408 242.559 60.9148 242.559 60.5355C242.559 60.1605 242.701 59.8388 242.987 59.5703C243.277 59.2976 243.624 59.1612 244.029 59.1612C244.434 59.1612 244.779 59.2976 245.064 59.5703C245.354 59.8388 245.499 60.1605 245.499 60.5355C245.499 60.9148 245.354 61.2408 245.064 61.5135C244.779 61.782 244.434 61.9162 244.029 61.9162ZM252.001 73.1918C251.008 73.1918 250.15 72.9808 249.425 72.5589C248.705 72.1328 248.149 71.5405 247.757 70.782C247.365 70.0192 247.169 69.1349 247.169 68.1293C247.169 67.1151 247.365 66.2287 247.757 65.4702C248.149 64.7074 248.705 64.1151 249.425 63.6932C250.15 63.267 251.008 63.054 252.001 63.054C252.994 63.054 253.851 63.267 254.571 63.6932C255.295 64.1151 255.854 64.7074 256.246 65.4702C256.638 66.2287 256.834 67.1151 256.834 68.1293C256.834 69.1349 256.638 70.0192 256.246 70.782C255.854 71.5405 255.295 72.1328 254.571 72.5589C253.851 72.9808 252.994 73.1918 252.001 73.1918ZM252.014 71.0824C252.466 71.0824 252.843 70.9545 253.145 70.6989C253.448 70.4389 253.676 70.0852 253.829 69.6378C253.987 69.1903 254.066 68.6811 254.066 68.1101C254.066 67.5391 253.987 67.0298 253.829 66.5824C253.676 66.1349 253.448 65.7812 253.145 65.5213C252.843 65.2614 252.466 65.1314 252.014 65.1314C251.558 65.1314 251.175 65.2614 250.863 65.5213C250.557 65.7812 250.324 66.1349 250.167 66.5824C250.013 67.0298 249.937 67.5391 249.937 68.1101C249.937 68.6811 250.013 69.1903 250.167 69.6378C250.324 70.0852 250.557 70.4389 250.863 70.6989C251.175 70.9545 251.558 71.0824 252.014 71.0824ZM261.327 67.3239V73H258.604V63.1818H261.199V64.9141H261.314C261.532 64.343 261.896 63.8913 262.407 63.5589C262.919 63.2223 263.539 63.054 264.268 63.054C264.949 63.054 265.544 63.2031 266.051 63.5014C266.558 63.7997 266.952 64.2259 267.233 64.7798C267.515 65.3295 267.655 65.9858 267.655 66.7486V73H264.932V67.2344C264.937 66.6335 264.783 66.1648 264.472 65.8281C264.161 65.4872 263.733 65.3168 263.187 65.3168C262.821 65.3168 262.497 65.3956 262.216 65.5533C261.939 65.7109 261.721 65.9411 261.564 66.2436C261.41 66.5419 261.331 66.902 261.327 67.3239Z" fill="#191C1D"/>
<rect x="64" y="340" width="8" height="8" rx="4" fill="#3525CD"/>
<path d="M80.9661 348V339.27H82.5064L85.7925 344.465C85.9017 344.637 86.0248 344.843 86.1618 345.082C86.2989 345.321 86.4438 345.59 86.5967 345.888C86.7496 346.186 86.9006 346.511 87.0498 346.863H86.8831C86.8508 346.531 86.8256 346.201 86.8075 345.875C86.7894 345.548 86.7766 345.243 86.7692 344.959C86.7618 344.675 86.7581 344.434 86.7581 344.237V339.27H88.1097V348H86.5598L83.6162 343.352C83.4583 343.097 83.3043 342.842 83.1543 342.585C83.0043 342.328 82.8386 342.031 82.657 341.694C82.4755 341.357 82.2531 340.945 81.9898 340.459H82.2023C82.2239 340.888 82.2438 341.29 82.2619 341.664C82.28 342.038 82.2946 342.369 82.3058 342.656C82.3169 342.942 82.3225 343.171 82.3225 343.342V348H80.9661ZM92.7664 348.136C92.1216 348.136 91.5655 347.997 91.0981 347.718C90.6307 347.439 90.271 347.048 90.0191 346.544C89.7672 346.04 89.6413 345.449 89.6413 344.771C89.6413 344.098 89.765 343.507 90.0124 342.996C90.2599 342.485 90.6101 342.086 91.0629 341.799C91.5158 341.511 92.0464 341.367 92.655 341.367C93.0293 341.367 93.3911 341.428 93.7402 341.551C94.0894 341.673 94.4025 341.865 94.6797 342.127C94.9568 342.389 95.1764 342.729 95.3383 343.146C95.5003 343.564 95.5812 344.068 95.5812 344.658V345.116H90.3582V344.153H94.9169L94.315 344.471C94.315 344.071 94.2528 343.717 94.1282 343.411C94.0036 343.104 93.8187 342.865 93.5735 342.692C93.3282 342.52 93.0235 342.433 92.6592 342.433C92.2949 342.433 91.9837 342.521 91.7257 342.697C91.4676 342.873 91.2707 343.104 91.1349 343.392C90.9991 343.679 90.9312 343.992 90.9312 344.332V344.986C90.9312 345.435 91.0084 345.815 91.1626 346.126C91.3169 346.437 91.5333 346.673 91.8117 346.832C92.0902 346.991 92.4128 347.07 92.7796 347.07C93.0199 347.07 93.2383 347.036 93.4348 346.967C93.6313 346.898 93.8005 346.794 93.9423 346.656C94.0841 346.517 94.1928 346.346 94.2685 346.142L95.4779 346.427C95.3749 346.766 95.1992 347.064 94.9507 347.321C94.7021 347.578 94.3932 347.778 94.0238 347.921C93.6545 348.065 93.2353 348.136 92.7664 348.136ZM98.2284 348L96.26 341.449H97.6207L98.3416 344.163C98.4468 344.568 98.5599 345.02 98.681 345.519C98.8022 346.019 98.9191 346.579 99.0317 347.202H98.8437C98.956 346.602 99.0727 346.051 99.1938 345.55C99.3149 345.049 99.4307 344.586 99.5411 344.163L100.264 341.449H101.554L102.263 344.163C102.369 344.577 102.482 345.034 102.602 345.534C102.722 346.033 102.838 346.589 102.95 347.202H102.76C102.875 346.595 102.991 346.043 103.109 345.543C103.227 345.044 103.34 344.584 103.448 344.163L104.169 341.449H105.538L103.566 348H102.271L101.463 345.181C101.382 344.897 101.302 344.599 101.224 344.289C101.146 343.978 101.07 343.66 100.995 343.335C100.921 343.01 100.845 342.688 100.767 342.37H101.027C100.953 342.685 100.878 343.006 100.802 343.333C100.726 343.659 100.649 343.98 100.571 344.294C100.493 344.607 100.413 344.903 100.331 345.181L99.523 348H98.2284ZM112.591 348V344.523L109.373 339.27H110.931L112.575 342.055C112.755 342.358 112.915 342.649 113.055 342.93C113.194 343.211 113.338 343.559 113.486 343.976H113.059C113.206 343.553 113.349 343.199 113.489 342.915C113.628 342.631 113.783 342.345 113.954 342.055L115.578 339.27H117.129L113.928 344.523V348H112.591ZM120.002 348.136C119.387 348.136 118.851 347.996 118.393 347.714C117.935 347.432 117.579 347.038 117.326 346.53C117.073 346.023 116.946 345.433 116.946 344.761C116.946 344.08 117.073 343.485 117.326 342.976C117.579 342.467 117.935 342.071 118.393 341.79C118.851 341.508 119.387 341.367 120.002 341.367C120.62 341.367 121.159 341.508 121.618 341.79C122.077 342.071 122.433 342.467 122.686 342.976C122.939 343.485 123.066 344.08 123.066 344.761C123.066 345.433 122.939 346.023 122.686 346.53C122.433 347.038 122.077 347.432 121.618 347.714C121.159 347.996 120.62 348.136 120.002 348.136ZM120.002 347.046C120.401 347.046 120.73 346.942 120.99 346.733C121.25 346.524 121.444 346.246 121.57 345.9C121.696 345.553 121.759 345.173 121.759 344.759C121.759 344.342 121.696 343.959 121.57 343.61C121.444 343.261 121.25 342.982 120.99 342.772C120.73 342.562 120.401 342.457 120.002 342.457C119.606 342.457 119.279 342.562 119.022 342.772C118.765 342.982 118.573 343.26 118.447 343.608C118.321 343.955 118.258 344.339 118.258 344.759C118.258 345.173 118.321 345.553 118.447 345.9C118.573 346.246 118.765 346.524 119.022 346.733C119.279 346.942 119.606 347.046 120.002 347.046ZM124.496 348V341.449H125.743V342.501H125.813C125.934 342.145 126.145 341.866 126.446 341.662C126.747 341.459 127.09 341.358 127.472 341.358C127.555 341.358 127.649 341.361 127.755 341.367C127.862 341.373 127.949 341.38 128.017 341.389V342.619C127.971 342.605 127.881 342.59 127.748 342.574C127.614 342.558 127.479 342.55 127.342 342.55C127.044 342.55 126.777 342.613 126.541 342.739C126.305 342.865 126.119 343.038 125.985 343.259C125.851 343.48 125.784 343.734 125.784 344.023V348H124.496ZM130.515 345.79V344.214H130.733L133.314 341.449H134.863L131.9 344.619H131.683L130.515 345.79ZM129.324 348V339.27H130.613V348H129.324ZM133.448 348L131.122 344.906L132.013 343.994L135.041 348H133.448Z" fill="#191C1D"/>
<path d="M276.809 346.449V345.038L280.465 339.27H281.674V341.24H280.953L278.616 344.935V345.006H283.796V346.449H276.809ZM280.989 348V346.022L281.024 345.388V339.27H282.708V348H280.989ZM288.017 348.117C287.419 348.117 286.886 348.007 286.419 347.787C285.951 347.567 285.582 347.263 285.31 346.877C285.038 346.49 284.896 346.048 284.883 345.55H286.625C286.636 345.776 286.705 345.976 286.832 346.15C286.959 346.323 287.126 346.458 287.333 346.554C287.541 346.651 287.769 346.699 288.017 346.699C288.31 346.699 288.568 346.633 288.793 346.502C289.018 346.37 289.194 346.188 289.322 345.953C289.45 345.719 289.514 345.449 289.514 345.143C289.514 344.831 289.448 344.556 289.317 344.317C289.185 344.078 289.005 343.892 288.777 343.758C288.549 343.624 288.285 343.557 287.985 343.557C287.724 343.557 287.473 343.609 287.233 343.714C286.992 343.819 286.805 343.959 286.671 344.134L285.065 343.853L285.486 339.27H290.769V340.745H286.967L286.741 342.955H286.788C286.945 342.743 287.177 342.569 287.484 342.432C287.791 342.295 288.133 342.227 288.51 342.227C288.902 342.227 289.265 342.297 289.598 342.437C289.932 342.578 290.222 342.777 290.469 343.034C290.716 343.291 290.908 343.595 291.044 343.945C291.181 344.295 291.249 344.679 291.249 345.097C291.249 345.683 291.113 346.203 290.841 346.658C290.569 347.112 290.19 347.469 289.706 347.728C289.221 347.988 288.658 348.117 288.017 348.117ZM294.792 343.438C294.381 343.438 294.033 343.35 293.75 343.174C293.467 342.998 293.252 342.764 293.107 342.471C292.961 342.178 292.888 341.859 292.888 341.514V341.057C292.888 340.707 292.963 340.386 293.111 340.094C293.26 339.802 293.476 339.568 293.761 339.393C294.045 339.217 294.389 339.129 294.792 339.129C295.209 339.129 295.558 339.217 295.84 339.393C296.121 339.568 296.334 339.802 296.479 340.094C296.624 340.386 296.696 340.707 296.696 341.057V341.514C296.696 341.864 296.623 342.184 296.476 342.476C296.329 342.768 296.115 343.001 295.832 343.176C295.55 343.35 295.203 343.438 294.792 343.438ZM294.792 342.363C295.055 342.363 295.234 342.275 295.33 342.098C295.426 341.922 295.474 341.727 295.474 341.514V341.057C295.474 340.845 295.428 340.649 295.336 340.467C295.244 340.285 295.063 340.194 294.792 340.194C294.535 340.194 294.357 340.287 294.258 340.472C294.16 340.657 294.111 340.852 294.111 341.057V341.514C294.111 341.727 294.16 341.922 294.259 342.098C294.358 342.275 294.535 342.363 294.792 342.363ZM300.993 348.154C300.581 348.154 300.234 348.066 299.951 347.89C299.668 347.715 299.453 347.48 299.307 347.188C299.162 346.895 299.089 346.576 299.089 346.23V345.773C299.089 345.423 299.163 345.102 299.312 344.81C299.461 344.519 299.677 344.285 299.961 344.109C300.246 343.933 300.589 343.845 300.993 343.845C301.41 343.845 301.759 343.933 302.042 344.109C302.324 344.285 302.537 344.519 302.681 344.81C302.825 345.102 302.897 345.423 302.897 345.773V346.23C302.897 346.58 302.824 346.901 302.677 347.192C302.53 347.484 302.316 347.717 302.033 347.892C301.751 348.067 301.404 348.154 300.993 348.154ZM300.993 347.08C301.256 347.08 301.435 346.991 301.531 346.815C301.627 346.638 301.675 346.443 301.675 346.23V345.773C301.675 345.562 301.629 345.365 301.537 345.183C301.445 345.002 301.263 344.911 300.993 344.911C300.735 344.911 300.558 345.003 300.459 345.188C300.361 345.373 300.311 345.568 300.311 345.773V346.23C300.311 346.443 300.361 346.638 300.46 346.815C300.558 346.991 300.736 347.08 300.993 347.08ZM294.256 348L300.256 339.27H301.471L295.471 348H294.256Z" fill="#191C1D"/>
<path d="M84.5932 376.117C83.8379 376.117 83.1638 375.938 82.5706 375.58C81.9775 375.222 81.5108 374.708 81.1705 374.039C80.8302 373.37 80.66 372.57 80.66 371.641C80.66 370.706 80.8307 369.905 81.1721 369.235C81.5134 368.565 81.9808 368.051 82.5743 367.691C83.1678 367.332 83.8407 367.152 84.5932 367.152C85.0529 367.152 85.485 367.218 85.8895 367.35C86.294 367.483 86.6557 367.676 86.9745 367.93C87.2934 368.184 87.5578 368.492 87.7678 368.856C87.9779 369.22 88.1198 369.633 88.1937 370.097H86.8484C86.793 369.816 86.6967 369.569 86.5597 369.356C86.4227 369.143 86.254 368.963 86.0537 368.815C85.8535 368.667 85.6304 368.556 85.3845 368.481C85.1386 368.407 84.879 368.369 84.6058 368.369C84.1056 368.369 83.6577 368.496 83.2622 368.748C82.8667 369.001 82.5554 369.37 82.3283 369.856C82.1012 370.343 81.9876 370.937 81.9876 371.641C81.9876 372.345 82.1023 372.94 82.3317 373.426C82.5611 373.912 82.8733 374.279 83.2681 374.527C83.6629 374.776 84.1081 374.9 84.6037 374.9C84.8769 374.9 85.1363 374.862 85.3818 374.786C85.6274 374.71 85.8506 374.599 86.0516 374.452C86.2526 374.306 86.422 374.126 86.5597 373.911C86.6974 373.696 86.7944 373.45 86.8506 373.173H88.1959C88.1301 373.605 87.9955 374 87.7921 374.358C87.5888 374.716 87.3293 375.026 87.0136 375.291C86.6979 375.555 86.3357 375.758 85.927 375.902C85.5182 376.045 85.0736 376.117 84.5932 376.117ZM91.5004 376.144C91.0857 376.144 90.7107 376.067 90.3757 375.914C90.0406 375.761 89.7752 375.536 89.5795 375.239C89.3838 374.941 89.2859 374.578 89.2859 374.147C89.2859 373.775 89.3577 373.47 89.5012 373.232C89.6447 372.994 89.8379 372.805 90.0806 372.666C90.3234 372.526 90.5943 372.421 90.8933 372.351C91.1924 372.281 91.4974 372.227 91.8084 372.191C92.1948 372.144 92.5088 372.106 92.7503 372.077C92.9918 372.048 93.1704 371.999 93.286 371.931C93.4016 371.862 93.4595 371.751 93.4595 371.598V371.565C93.4595 371.32 93.4124 371.113 93.3182 370.944C93.224 370.774 93.0838 370.644 92.8975 370.553C92.7113 370.463 92.4795 370.417 92.2023 370.417C91.9193 370.417 91.6756 370.461 91.4712 370.549C91.2669 370.637 91.1006 370.749 90.9725 370.884C90.8444 371.02 90.749 371.162 90.6864 371.311L89.4734 370.999C89.6224 370.606 89.8356 370.291 90.1131 370.052C90.3905 369.814 90.7086 369.64 91.0675 369.531C91.4263 369.422 91.7987 369.367 92.1846 369.367C92.4476 369.367 92.7276 369.399 93.0244 369.462C93.3213 369.525 93.6003 369.638 93.8615 369.801C94.1227 369.964 94.3358 370.195 94.5008 370.493C94.6658 370.791 94.7483 371.177 94.7483 371.651V376H93.5013V375.103H93.4352C93.3504 375.272 93.2241 375.437 93.0562 375.597C92.8882 375.757 92.6759 375.888 92.4191 375.99C92.1623 376.093 91.8561 376.144 91.5004 376.144ZM91.7865 375.112C92.1391 375.112 92.4402 375.043 92.6897 374.905C92.9392 374.766 93.1306 374.585 93.2638 374.359C93.3971 374.134 93.4637 373.895 93.4637 373.641V372.799C93.4172 372.845 93.3284 372.887 93.1972 372.925C93.066 372.963 92.9172 372.996 92.7506 373.026C92.584 373.055 92.4219 373.079 92.2643 373.1C92.1066 373.12 91.9777 373.137 91.8775 373.149C91.6363 373.18 91.4148 373.232 91.2131 373.306C91.0114 373.38 90.8511 373.486 90.7324 373.622C90.6136 373.759 90.5543 373.94 90.5543 374.165C90.5543 374.373 90.6076 374.547 90.7142 374.687C90.8209 374.827 90.9666 374.933 91.1514 375.004C91.3363 375.076 91.548 375.112 91.7865 375.112ZM97.7708 367.27V376H96.482V367.27H97.7708ZM99.5054 376V369.449H100.794V376H99.5054ZM100.154 368.45C99.9325 368.45 99.7424 368.375 99.5831 368.225C99.4238 368.074 99.3441 367.894 99.3441 367.684C99.3441 367.47 99.4238 367.288 99.5831 367.14C99.7424 366.992 99.9325 366.918 100.154 366.918C100.378 366.918 100.569 366.992 100.729 367.14C100.888 367.288 100.968 367.47 100.968 367.684C100.968 367.894 100.888 368.075 100.729 368.225C100.569 368.375 100.378 368.45 100.154 368.45ZM105.775 369.449V370.497H101.779V369.449H105.775ZM103.024 376V368.7C103.024 368.292 103.114 367.952 103.294 367.68C103.475 367.407 103.713 367.203 104.01 367.065C104.307 366.928 104.629 366.859 104.974 366.859C105.233 366.859 105.455 366.88 105.641 366.922C105.826 366.965 105.963 367.003 106.051 367.037L105.75 368.081C105.689 368.061 105.613 368.04 105.521 368.018C105.429 367.996 105.314 367.984 105.176 367.984C104.871 367.984 104.65 368.061 104.514 368.214C104.379 368.367 104.311 368.587 104.311 368.875V376H103.024ZM109.514 376.136C108.899 376.136 108.363 375.996 107.904 375.714C107.446 375.432 107.091 375.038 106.837 374.53C106.584 374.023 106.458 373.433 106.458 372.761C106.458 372.08 106.584 371.485 106.837 370.976C107.091 370.467 107.446 370.071 107.904 369.79C108.363 369.508 108.899 369.367 109.514 369.367C110.132 369.367 110.671 369.508 111.13 369.79C111.589 370.071 111.945 370.467 112.198 370.976C112.451 371.485 112.578 372.08 112.578 372.761C112.578 373.433 112.451 374.023 112.198 374.53C111.945 375.038 111.589 375.432 111.13 375.714C110.671 375.996 110.132 376.136 109.514 376.136ZM109.514 375.046C109.912 375.046 110.242 374.942 110.502 374.733C110.762 374.524 110.955 374.246 111.082 373.9C111.208 373.553 111.271 373.173 111.271 372.759C111.271 372.342 111.208 371.959 111.082 371.61C110.955 371.261 110.762 370.982 110.502 370.772C110.242 370.562 109.912 370.457 109.514 370.457C109.118 370.457 108.791 370.562 108.534 370.772C108.277 370.982 108.085 371.26 107.959 371.608C107.832 371.955 107.769 372.339 107.769 372.759C107.769 373.173 107.832 373.553 107.959 373.9C108.085 374.246 108.277 374.524 108.534 374.733C108.791 374.942 109.118 375.046 109.514 375.046ZM114.007 376V369.449H115.255V370.501H115.325C115.445 370.145 115.656 369.866 115.958 369.662C116.259 369.459 116.601 369.358 116.984 369.358C117.066 369.358 117.161 369.361 117.267 369.367C117.374 369.373 117.461 369.38 117.529 369.389V370.619C117.482 370.605 117.392 370.59 117.259 370.574C117.126 370.558 116.991 370.55 116.854 370.55C116.556 370.55 116.289 370.613 116.053 370.739C115.816 370.865 115.631 371.038 115.497 371.259C115.363 371.48 115.296 371.734 115.296 372.023V376H114.007ZM120.089 372.119V376H118.8V369.449H120.029L120.042 371.053H119.91C120.1 370.467 120.376 370.04 120.739 369.771C121.102 369.502 121.541 369.367 122.056 369.367C122.501 369.367 122.891 369.461 123.225 369.648C123.559 369.834 123.819 370.111 124.004 370.477C124.19 370.844 124.283 371.297 124.283 371.838V376H122.994V371.998C122.994 371.527 122.872 371.157 122.626 370.89C122.38 370.623 122.043 370.489 121.615 370.489C121.324 370.489 121.064 370.553 120.833 370.68C120.602 370.807 120.421 370.992 120.288 371.235C120.155 371.477 120.089 371.772 120.089 372.119ZM126.019 376V369.449H127.308V376H126.019ZM126.667 368.45C126.446 368.45 126.256 368.375 126.097 368.225C125.937 368.074 125.858 367.894 125.858 367.684C125.858 367.47 125.937 367.288 126.097 367.14C126.256 366.992 126.446 366.918 126.667 366.918C126.891 366.918 127.083 366.992 127.242 367.14C127.402 367.288 127.481 367.47 127.481 367.684C127.481 367.894 127.402 368.075 127.242 368.225C127.083 368.375 126.891 368.45 126.667 368.45ZM130.875 376.144C130.461 376.144 130.086 376.067 129.751 375.914C129.416 375.761 129.15 375.536 128.954 375.239C128.759 374.941 128.661 374.578 128.661 374.147C128.661 373.775 128.733 373.47 128.876 373.232C129.02 372.994 129.213 372.805 129.456 372.666C129.698 372.526 129.969 372.421 130.268 372.351C130.567 372.281 130.872 372.227 131.183 372.191C131.57 372.144 131.884 372.106 132.125 372.077C132.367 372.048 132.545 371.999 132.661 371.931C132.777 371.862 132.834 371.751 132.834 371.598V371.565C132.834 371.32 132.787 371.113 132.693 370.944C132.599 370.774 132.459 370.644 132.273 370.553C132.086 370.463 131.855 370.417 131.577 370.417C131.294 370.417 131.051 370.461 130.846 370.549C130.642 370.637 130.476 370.749 130.347 370.884C130.219 371.02 130.124 371.162 130.061 371.311L128.848 370.999C128.997 370.606 129.211 370.291 129.488 370.052C129.765 369.814 130.084 369.64 130.442 369.531C130.801 369.422 131.174 369.367 131.56 369.367C131.823 369.367 132.103 369.399 132.399 369.462C132.696 369.525 132.975 369.638 133.237 369.801C133.498 369.964 133.711 370.195 133.876 370.493C134.041 370.791 134.123 371.177 134.123 371.651V376H132.876V375.103H132.81C132.725 375.272 132.599 375.437 132.431 375.597C132.263 375.757 132.051 375.888 131.794 375.99C131.537 376.093 131.231 376.144 130.875 376.144ZM131.161 375.112C131.514 375.112 131.815 375.043 132.065 374.905C132.314 374.766 132.506 374.585 132.639 374.359C132.772 374.134 132.839 373.895 132.839 373.641V372.799C132.792 372.845 132.703 372.887 132.572 372.925C132.441 372.963 132.292 372.996 132.126 373.026C131.959 373.055 131.797 373.079 131.639 373.1C131.482 373.12 131.353 373.137 131.253 373.149C131.011 373.18 130.79 373.232 130.588 373.306C130.386 373.38 130.226 373.486 130.107 373.622C129.989 373.759 129.929 373.94 129.929 374.165C129.929 374.373 129.983 374.547 130.089 374.687C130.196 374.827 130.342 374.933 130.526 375.004C130.711 375.076 130.923 375.112 131.161 375.112Z" fill="#191C1D"/>
<path d="M277.505 376V374.713L280.599 371.81C280.864 371.552 281.088 371.318 281.271 371.111C281.454 370.903 281.594 370.699 281.689 370.498C281.785 370.296 281.833 370.078 281.833 369.842C281.833 369.582 281.774 369.358 281.656 369.17C281.537 368.982 281.377 368.837 281.174 368.736C280.971 368.635 280.739 368.584 280.477 368.584C280.206 368.584 279.97 368.639 279.768 368.748C279.566 368.858 279.41 369.014 279.299 369.217C279.188 369.42 279.133 369.664 279.133 369.947H277.427C277.427 369.379 277.557 368.886 277.815 368.468C278.073 368.05 278.433 367.726 278.893 367.497C279.354 367.267 279.887 367.152 280.491 367.152C281.107 367.152 281.646 367.262 282.106 367.482C282.567 367.702 282.925 368.006 283.181 368.393C283.437 368.78 283.565 369.226 283.565 369.729C283.565 370.056 283.501 370.377 283.374 370.693C283.247 371.009 283.021 371.362 282.696 371.754C282.371 372.146 281.909 372.616 281.311 373.165L279.99 374.467V374.531H283.683V376H277.505ZM288.021 376.117C287.422 376.117 286.89 376.007 286.422 375.787C285.955 375.567 285.585 375.263 285.313 374.877C285.042 374.49 284.899 374.048 284.886 373.55H286.629C286.64 373.776 286.708 373.976 286.835 374.15C286.962 374.323 287.13 374.458 287.337 374.554C287.544 374.651 287.772 374.699 288.021 374.699C288.313 374.699 288.572 374.633 288.797 374.502C289.021 374.37 289.198 374.188 289.325 373.953C289.453 373.719 289.517 373.449 289.517 373.143C289.517 372.831 289.451 372.556 289.32 372.317C289.189 372.078 289.009 371.892 288.78 371.758C288.552 371.624 288.288 371.557 287.988 371.557C287.727 371.557 287.476 371.609 287.236 371.714C286.996 371.819 286.808 371.959 286.675 372.134L285.068 371.853L285.489 367.27H290.773V368.745H286.971L286.745 370.955H286.792C286.948 370.743 287.18 370.569 287.487 370.432C287.794 370.295 288.136 370.227 288.513 370.227C288.905 370.227 289.268 370.297 289.602 370.437C289.935 370.578 290.226 370.777 290.472 371.034C290.719 371.291 290.911 371.595 291.048 371.945C291.184 372.295 291.252 372.679 291.252 373.097C291.252 373.683 291.116 374.203 290.844 374.658C290.572 375.112 290.194 375.469 289.709 375.728C289.224 375.988 288.661 376.117 288.021 376.117ZM294.795 371.438C294.384 371.438 294.037 371.35 293.753 371.174C293.47 370.998 293.256 370.764 293.11 370.471C292.964 370.178 292.892 369.859 292.892 369.514V369.057C292.892 368.707 292.966 368.386 293.115 368.094C293.263 367.802 293.48 367.568 293.764 367.393C294.048 367.217 294.392 367.129 294.795 367.129C295.212 367.129 295.562 367.217 295.843 367.393C296.125 367.568 296.338 367.802 296.482 368.094C296.627 368.386 296.7 368.707 296.7 369.057V369.514C296.7 369.864 296.626 370.184 296.48 370.476C296.333 370.768 296.118 371.001 295.836 371.176C295.553 371.35 295.206 371.438 294.795 371.438ZM294.795 370.363C295.058 370.363 295.238 370.275 295.333 370.098C295.429 369.922 295.477 369.727 295.477 369.514V369.057C295.477 368.845 295.431 368.649 295.339 368.467C295.247 368.285 295.066 368.194 294.795 368.194C294.538 368.194 294.36 368.287 294.262 368.472C294.163 368.657 294.114 368.852 294.114 369.057V369.514C294.114 369.727 294.163 369.922 294.262 370.098C294.361 370.275 294.539 370.363 294.795 370.363ZM300.996 376.154C300.585 376.154 300.238 376.066 299.954 375.89C299.671 375.715 299.456 375.48 299.311 375.188C299.165 374.895 299.092 374.576 299.092 374.23V373.773C299.092 373.423 299.167 373.102 299.315 372.81C299.464 372.519 299.681 372.285 299.965 372.109C300.249 371.933 300.593 371.845 300.996 371.845C301.413 371.845 301.763 371.933 302.045 372.109C302.328 372.285 302.541 372.519 302.685 372.81C302.828 373.102 302.9 373.423 302.9 373.773V374.23C302.9 374.58 302.827 374.901 302.68 375.192C302.534 375.484 302.319 375.717 302.036 375.892C301.754 376.067 301.407 376.154 300.996 376.154ZM300.996 375.08C301.259 375.08 301.438 374.991 301.534 374.815C301.63 374.638 301.678 374.443 301.678 374.23V373.773C301.678 373.562 301.632 373.365 301.54 373.183C301.448 373.002 301.267 372.911 300.996 372.911C300.739 372.911 300.561 373.003 300.463 373.188C300.364 373.373 300.315 373.568 300.315 373.773V374.23C300.315 374.443 300.364 374.638 300.463 374.815C300.562 374.991 300.739 375.08 300.996 375.08ZM294.259 376L300.259 367.27H301.474L295.474 376H294.259Z" fill="#191C1D"/>
<rect x="64" y="396" width="8" height="8" rx="4" fill="#006E2F"/>
<path d="M80.5299 396.421V395.27H87.3048V396.421H84.5916V404H83.2527V396.421H80.5299ZM90.5867 404.136C89.942 404.136 89.3859 403.997 88.9184 403.718C88.451 403.439 88.0913 403.048 87.8394 402.544C87.5875 402.04 87.4616 401.449 87.4616 400.771C87.4616 400.098 87.5853 399.507 87.8328 398.996C88.0802 398.485 88.4304 398.086 88.8832 397.799C89.3361 397.511 89.8668 397.367 90.4753 397.367C90.8496 397.367 91.2114 397.428 91.5605 397.551C91.9097 397.673 92.2228 397.865 92.5 398.127C92.7771 398.389 92.9967 398.729 93.1586 399.146C93.3206 399.564 93.4016 400.068 93.4016 400.658V401.116H88.1785V400.153H92.7372L92.1354 400.471C92.1354 400.071 92.0731 399.717 91.9485 399.411C91.8239 399.104 91.639 398.865 91.3938 398.692C91.1486 398.52 90.8438 398.433 90.4795 398.433C90.1152 398.433 89.804 398.521 89.546 398.697C89.2879 398.873 89.091 399.104 88.9552 399.392C88.8194 399.679 88.7516 399.992 88.7516 400.332V400.986C88.7516 401.435 88.8287 401.815 88.9829 402.126C89.1372 402.437 89.3536 402.673 89.632 402.832C89.9105 402.991 90.2332 403.07 90.6 403.07C90.8402 403.07 91.0586 403.036 91.2551 402.967C91.4516 402.898 91.6208 402.794 91.7626 402.656C91.9044 402.517 92.0131 402.346 92.0888 402.142L93.2982 402.427C93.1952 402.766 93.0195 403.064 92.771 403.321C92.5225 403.578 92.2135 403.778 91.8441 403.921C91.4748 404.065 91.0556 404.136 90.5867 404.136ZM94.0241 404L96.5912 400.14L96.5864 401.134L94.1557 397.449H95.6087L96.3493 398.642C96.5525 398.973 96.7307 399.288 96.884 399.589C97.0372 399.89 97.1941 400.18 97.3546 400.46H96.7648C96.9307 400.181 97.0845 399.89 97.2264 399.589C97.3682 399.288 97.5434 398.973 97.7519 398.642L98.5122 397.449H99.9376L97.4846 401.171V400.202L100.039 404H98.5938L97.7109 402.608C97.5088 402.283 97.3318 401.974 97.18 401.68C97.0282 401.385 96.8726 401.103 96.7132 400.832H97.3078C97.1504 401.103 97.002 401.385 96.8625 401.68C96.7229 401.974 96.5512 402.283 96.3473 402.608L95.458 404H94.0241ZM103.067 404.144C102.652 404.144 102.277 404.067 101.942 403.914C101.607 403.761 101.342 403.536 101.146 403.239C100.95 402.941 100.852 402.578 100.852 402.147C100.852 401.775 100.924 401.47 101.068 401.232C101.211 400.994 101.404 400.805 101.647 400.666C101.89 400.526 102.161 400.421 102.46 400.351C102.759 400.281 103.064 400.227 103.375 400.191C103.761 400.144 104.075 400.106 104.317 400.077C104.558 400.048 104.737 399.999 104.852 399.931C104.968 399.862 105.026 399.751 105.026 399.598V399.565C105.026 399.32 104.979 399.113 104.885 398.944C104.79 398.774 104.65 398.644 104.464 398.553C104.278 398.463 104.046 398.417 103.769 398.417C103.486 398.417 103.242 398.461 103.038 398.549C102.833 398.637 102.667 398.749 102.539 398.884C102.411 399.02 102.315 399.162 102.253 399.311L101.04 398.999C101.189 398.606 101.402 398.291 101.679 398.052C101.957 397.814 102.275 397.64 102.634 397.531C102.993 397.422 103.365 397.367 103.751 397.367C104.014 397.367 104.294 397.399 104.591 397.462C104.888 397.525 105.167 397.638 105.428 397.801C105.689 397.964 105.902 398.195 106.067 398.493C106.232 398.791 106.315 399.177 106.315 399.651V404H105.068V403.103H105.002C104.917 403.272 104.79 403.437 104.623 403.597C104.455 403.757 104.242 403.888 103.985 403.99C103.729 404.093 103.422 404.144 103.067 404.144ZM103.353 403.112C103.706 403.112 104.007 403.043 104.256 402.905C104.506 402.766 104.697 402.585 104.83 402.359C104.963 402.134 105.03 401.895 105.03 401.641V400.799C104.984 400.845 104.895 400.887 104.764 400.925C104.632 400.963 104.484 400.996 104.317 401.026C104.15 401.055 103.988 401.079 103.831 401.1C103.673 401.12 103.544 401.137 103.444 401.149C103.203 401.18 102.981 401.232 102.779 401.306C102.578 401.38 102.418 401.486 102.299 401.622C102.18 401.759 102.121 401.94 102.121 402.165C102.121 402.373 102.174 402.547 102.281 402.687C102.387 402.827 102.533 402.933 102.718 403.004C102.903 403.076 103.114 403.112 103.353 403.112ZM110.4 404.136C109.925 404.136 109.503 404.068 109.135 403.93C108.766 403.793 108.463 403.59 108.227 403.323C107.99 403.056 107.833 402.729 107.755 402.345L108.969 402.091C109.06 402.432 109.228 402.684 109.473 402.846C109.717 403.009 110.03 403.09 110.41 403.09C110.826 403.09 111.157 403.004 111.403 402.831C111.649 402.658 111.772 402.449 111.772 402.205C111.772 401.996 111.696 401.824 111.544 401.687C111.393 401.55 111.161 401.447 110.849 401.378L109.746 401.129C109.14 400.992 108.688 400.773 108.391 400.473C108.095 400.174 107.946 399.788 107.946 399.317C107.946 398.928 108.055 398.587 108.272 398.294C108.488 398.002 108.787 397.774 109.168 397.611C109.549 397.449 109.986 397.367 110.48 397.367C110.952 397.367 111.356 397.436 111.692 397.574C112.028 397.711 112.3 397.902 112.51 398.147C112.719 398.391 112.87 398.676 112.962 399L111.805 399.256C111.722 399.025 111.58 398.822 111.377 398.647C111.175 398.472 110.88 398.385 110.493 398.385C110.136 398.385 109.838 398.465 109.6 398.625C109.362 398.786 109.242 398.99 109.242 399.239C109.242 399.455 109.322 399.631 109.481 399.767C109.641 399.902 109.899 400.011 110.258 400.092L111.31 400.327C111.917 400.463 112.367 400.678 112.661 400.972C112.954 401.266 113.1 401.641 113.1 402.096C113.1 402.495 112.986 402.847 112.758 403.154C112.53 403.46 112.213 403.701 111.807 403.875C111.402 404.049 110.933 404.136 110.4 404.136Z" fill="#191C1D"/>
<path d="M283.556 395.27V404H281.774V396.845H281.715L279.713 398.261V396.622L281.644 395.27H283.556ZM288.026 404.117C287.428 404.117 286.895 404.007 286.427 403.787C285.96 403.567 285.59 403.263 285.319 402.877C285.047 402.49 284.904 402.048 284.891 401.55H286.634C286.645 401.776 286.714 401.976 286.841 402.15C286.968 402.323 287.135 402.458 287.342 402.554C287.549 402.651 287.777 402.699 288.026 402.699C288.318 402.699 288.577 402.633 288.802 402.502C289.026 402.37 289.203 402.188 289.33 401.953C289.458 401.719 289.522 401.449 289.522 401.143C289.522 400.831 289.456 400.556 289.325 400.317C289.194 400.078 289.014 399.892 288.786 399.758C288.557 399.624 288.293 399.557 287.993 399.557C287.732 399.557 287.482 399.609 287.241 399.714C287.001 399.819 286.814 399.959 286.68 400.134L285.073 399.853L285.494 395.27H290.778V396.745H286.976L286.75 398.955H286.797C286.953 398.743 287.185 398.569 287.492 398.432C287.799 398.295 288.141 398.227 288.518 398.227C288.91 398.227 289.273 398.297 289.607 398.437C289.94 398.578 290.231 398.777 290.478 399.034C290.724 399.291 290.916 399.595 291.053 399.945C291.189 400.295 291.257 400.679 291.257 401.097C291.257 401.683 291.122 402.203 290.85 402.658C290.578 403.112 290.199 403.469 289.714 403.728C289.229 403.988 288.666 404.117 288.026 404.117ZM294.8 399.438C294.389 399.438 294.042 399.35 293.759 399.174C293.475 398.998 293.261 398.764 293.115 398.471C292.97 398.178 292.897 397.859 292.897 397.514V397.057C292.897 396.707 292.971 396.386 293.12 396.094C293.268 395.802 293.485 395.568 293.769 395.393C294.054 395.217 294.397 395.129 294.8 395.129C295.217 395.129 295.567 395.217 295.848 395.393C296.13 395.568 296.343 395.802 296.488 396.094C296.632 396.386 296.705 396.707 296.705 397.057V397.514C296.705 397.864 296.631 398.184 296.485 398.476C296.338 398.768 296.123 399.001 295.841 399.176C295.558 399.35 295.211 399.438 294.8 399.438ZM294.8 398.363C295.063 398.363 295.243 398.275 295.339 398.098C295.434 397.922 295.482 397.727 295.482 397.514V397.057C295.482 396.845 295.436 396.649 295.344 396.467C295.253 396.285 295.071 396.194 294.8 396.194C294.543 396.194 294.365 396.287 294.267 396.472C294.168 396.657 294.119 396.852 294.119 397.057V397.514C294.119 397.727 294.169 397.922 294.267 398.098C294.366 398.275 294.544 398.363 294.8 398.363ZM301.001 404.154C300.59 404.154 300.243 404.066 299.959 403.89C299.676 403.715 299.462 403.48 299.316 403.188C299.17 402.895 299.098 402.576 299.098 402.23V401.773C299.098 401.423 299.172 401.102 299.321 400.81C299.469 400.519 299.686 400.285 299.97 400.109C300.254 399.933 300.598 399.845 301.001 399.845C301.418 399.845 301.768 399.933 302.05 400.109C302.333 400.285 302.546 400.519 302.69 400.81C302.834 401.102 302.905 401.423 302.905 401.773V402.23C302.905 402.58 302.832 402.901 302.685 403.192C302.539 403.484 302.324 403.717 302.042 403.892C301.759 404.067 301.412 404.154 301.001 404.154ZM301.001 403.08C301.264 403.08 301.444 402.991 301.539 402.815C301.635 402.638 301.683 402.443 301.683 402.23V401.773C301.683 401.562 301.637 401.365 301.545 401.183C301.453 401.002 301.272 400.911 301.001 400.911C300.744 400.911 300.566 401.003 300.468 401.188C300.369 401.373 300.32 401.568 300.32 401.773V402.23C300.32 402.443 300.369 402.638 300.468 402.815C300.567 402.991 300.745 403.08 301.001 403.08ZM294.264 404L300.264 395.27H301.479L295.479 404H294.264Z" fill="#191C1D"/>
<rect x="120" y="144" width="128" height="128" rx="64" fill="white"/>
<path d="M159.228 192.039V209.5H155.663V195.19H155.546L151.542 198.022V194.745L155.402 192.039H159.228ZM168.891 209.734C167.422 209.734 166.167 209.381 165.126 208.673C164.086 207.966 163.288 206.946 162.734 205.614C162.18 204.282 161.903 202.67 161.903 200.778C161.903 198.894 162.181 197.283 162.737 195.946C163.292 194.608 164.09 193.584 165.13 192.872C166.171 192.161 167.424 191.805 168.891 191.805C170.358 191.805 171.614 192.161 172.658 192.874C173.703 193.587 174.501 194.612 175.053 195.948C175.605 197.284 175.881 198.895 175.881 200.782C175.881 202.669 175.606 204.279 175.056 205.612C174.505 206.946 173.71 207.966 172.669 208.673C171.629 209.381 170.369 209.734 168.891 209.734ZM168.893 206.764C169.609 206.764 170.215 206.531 170.712 206.065C171.209 205.599 171.587 204.92 171.847 204.029C172.106 203.138 172.236 202.055 172.236 200.78C172.236 199.499 172.106 198.41 171.847 197.513C171.587 196.616 171.208 195.933 170.711 195.463C170.213 194.992 169.607 194.757 168.894 194.757C168.18 194.757 167.574 194.993 167.075 195.465C166.576 195.937 166.197 196.621 165.937 197.516C165.678 198.411 165.548 199.499 165.548 200.78C165.548 202.055 165.677 203.138 165.934 204.029C166.192 204.92 166.57 205.599 167.07 206.065C167.569 206.531 168.177 206.764 168.893 206.764ZM185.075 209.734C183.605 209.734 182.35 209.381 181.31 208.673C180.269 207.966 179.472 206.946 178.918 205.614C178.364 204.282 178.087 202.67 178.087 200.778C178.087 198.894 178.365 197.283 178.92 195.946C179.476 194.608 180.274 193.584 181.314 192.872C182.354 192.161 183.608 191.805 185.075 191.805C186.542 191.805 187.797 192.161 188.842 192.874C189.886 193.587 190.685 194.612 191.236 195.948C191.788 197.284 192.064 198.895 192.064 200.782C192.064 202.669 191.789 204.279 191.239 205.612C190.689 206.946 189.894 207.966 188.853 208.673C187.812 209.381 186.553 209.734 185.075 209.734ZM185.076 206.764C185.792 206.764 186.399 206.531 186.895 206.065C187.392 205.599 187.77 204.92 188.03 204.029C188.29 203.138 188.42 202.055 188.42 200.78C188.42 199.499 188.29 198.41 188.03 197.513C187.77 196.616 187.392 195.933 186.894 195.463C186.397 194.992 185.791 194.757 185.077 194.757C184.364 194.757 183.758 194.993 183.259 195.465C182.76 195.937 182.381 196.621 182.121 197.516C181.861 198.411 181.731 199.499 181.731 200.78C181.731 202.055 181.86 203.138 182.118 204.029C182.375 204.92 182.754 205.599 183.253 206.065C183.753 206.531 184.36 206.764 185.076 206.764ZM199.153 200.376C198.331 200.376 197.636 200.2 197.07 199.848C196.503 199.496 196.074 199.028 195.783 198.442C195.492 197.857 195.346 197.219 195.346 196.527V195.613C195.346 194.914 195.495 194.272 195.792 193.688C196.089 193.105 196.522 192.637 197.091 192.285C197.66 191.934 198.347 191.758 199.153 191.758C199.988 191.758 200.686 191.934 201.249 192.285C201.812 192.637 202.238 193.105 202.528 193.688C202.817 194.272 202.962 194.914 202.962 195.613V196.527C202.962 197.227 202.815 197.869 202.522 198.452C202.229 199.035 201.8 199.502 201.234 199.851C200.669 200.201 199.976 200.376 199.153 200.376ZM199.153 198.227C199.68 198.227 200.038 198.05 200.23 197.697C200.422 197.344 200.517 196.954 200.517 196.527V195.613C200.517 195.19 200.425 194.797 200.242 194.434C200.058 194.071 199.695 193.889 199.153 193.889C198.639 193.889 198.283 194.074 198.087 194.443C197.89 194.813 197.791 195.203 197.791 195.613V196.527C197.791 196.954 197.89 197.344 198.087 197.697C198.285 198.05 198.64 198.227 199.153 198.227ZM211.555 209.808C210.732 209.808 210.038 209.632 209.471 209.281C208.905 208.929 208.476 208.461 208.185 207.875C207.893 207.29 207.748 206.651 207.748 205.96V205.046C207.748 204.346 207.896 203.705 208.194 203.121C208.491 202.537 208.924 202.07 209.493 201.718C210.061 201.366 210.749 201.19 211.555 201.19C212.389 201.19 213.089 201.366 213.654 201.718C214.218 202.07 214.645 202.537 214.932 203.121C215.22 203.705 215.364 204.346 215.364 205.046V205.96C215.364 206.66 215.217 207.301 214.924 207.885C214.63 208.468 214.201 208.934 213.636 209.284C213.071 209.633 212.377 209.808 211.555 209.808ZM211.555 207.659C212.081 207.659 212.44 207.483 212.632 207.129C212.823 206.776 212.919 206.386 212.919 205.96V205.046C212.919 204.623 212.827 204.23 212.643 203.867C212.46 203.503 212.097 203.321 211.555 203.321C211.041 203.321 210.685 203.506 210.488 203.876C210.291 204.246 210.193 204.636 210.193 205.046V205.96C210.193 206.386 210.291 206.776 210.489 207.129C210.687 207.483 211.042 207.659 211.555 207.659ZM198.081 209.5L210.081 192.039H212.511L200.511 209.5H198.081Z" fill="#191C1D"/>
<path d="M164.717 227.598C164.037 227.598 163.44 227.447 162.927 227.145C162.413 226.843 162.012 226.413 161.725 225.856C161.437 225.299 161.294 224.637 161.294 223.872C161.294 223.085 161.443 222.412 161.742 221.854C162.041 221.296 162.446 220.868 162.958 220.572C163.469 220.275 164.045 220.127 164.684 220.127C165.093 220.127 165.474 220.186 165.827 220.304C166.18 220.423 166.494 220.591 166.77 220.81C167.046 221.028 167.271 221.287 167.446 221.585C167.62 221.884 167.732 222.212 167.783 222.571H166.267C166.217 222.396 166.145 222.24 166.052 222.102C165.96 221.964 165.847 221.846 165.715 221.749C165.583 221.651 165.432 221.577 165.264 221.526C165.096 221.476 164.91 221.45 164.708 221.45C164.334 221.45 164.004 221.544 163.717 221.73C163.43 221.916 163.207 222.189 163.046 222.547C162.886 222.906 162.806 223.342 162.806 223.857C162.806 224.371 162.885 224.809 163.044 225.168C163.202 225.528 163.425 225.802 163.712 225.991C163.999 226.18 164.337 226.274 164.727 226.274C165.077 226.274 165.379 226.21 165.63 226.083C165.882 225.955 166.075 225.774 166.209 225.54C166.342 225.305 166.409 225.029 166.409 224.71L166.722 224.756H164.83V223.624H167.855V224.533C167.855 225.169 167.721 225.715 167.451 226.173C167.182 226.631 166.811 226.983 166.339 227.229C165.867 227.475 165.326 227.598 164.717 227.598ZM169.997 227.5V220.225H171.489V226.263H174.626V227.5H169.997ZM179.565 227.598C178.923 227.598 178.345 227.451 177.832 227.158C177.319 226.865 176.913 226.44 176.616 225.883C176.318 225.327 176.17 224.655 176.17 223.867C176.17 223.075 176.318 222.4 176.616 221.842C176.913 221.285 177.319 220.86 177.832 220.567C178.345 220.273 178.923 220.127 179.565 220.127C180.208 220.127 180.785 220.273 181.297 220.567C181.808 220.86 182.213 221.285 182.51 221.842C182.808 222.4 182.957 223.075 182.957 223.867C182.957 224.657 182.808 225.329 182.51 225.886C182.213 226.442 181.808 226.867 181.297 227.159C180.785 227.451 180.208 227.598 179.565 227.598ZM179.565 226.274C179.942 226.274 180.271 226.182 180.553 225.997C180.834 225.813 181.053 225.541 181.209 225.183C181.366 224.824 181.444 224.385 181.444 223.867C181.444 223.344 181.366 222.903 181.209 222.543C181.053 222.184 180.834 221.912 180.553 221.727C180.271 221.543 179.942 221.45 179.565 221.45C179.189 221.45 178.86 221.543 178.578 221.728C178.295 221.914 178.076 222.186 177.918 222.546C177.761 222.905 177.682 223.346 177.682 223.867C177.682 224.385 177.761 224.824 177.918 225.181C178.076 225.539 178.295 225.811 178.578 225.996C178.86 226.182 179.189 226.274 179.565 226.274ZM185.073 227.5V220.225H187.963C188.495 220.225 188.939 220.305 189.295 220.466C189.651 220.627 189.918 220.848 190.096 221.129C190.274 221.41 190.363 221.731 190.363 222.093C190.363 222.381 190.305 222.631 190.191 222.844C190.077 223.057 189.922 223.232 189.725 223.367C189.529 223.502 189.305 223.598 189.055 223.655V223.729C189.329 223.74 189.586 223.818 189.829 223.962C190.071 224.106 190.267 224.308 190.419 224.567C190.57 224.826 190.646 225.136 190.646 225.496C190.646 225.878 190.552 226.22 190.364 226.523C190.176 226.825 189.897 227.064 189.527 227.238C189.156 227.413 188.697 227.5 188.149 227.5H185.073ZM186.565 226.274H187.853C188.291 226.274 188.61 226.189 188.811 226.02C189.011 225.851 189.111 225.629 189.111 225.354C189.111 225.149 189.062 224.967 188.963 224.808C188.864 224.65 188.723 224.525 188.541 224.435C188.358 224.345 188.142 224.299 187.891 224.299H186.565V226.274ZM186.565 223.281H187.74C187.953 223.281 188.144 223.243 188.312 223.167C188.481 223.09 188.613 222.982 188.711 222.84C188.808 222.699 188.857 222.53 188.857 222.334C188.857 222.069 188.763 221.854 188.575 221.688C188.387 221.523 188.118 221.44 187.769 221.44H186.565V223.281ZM192.27 227.5L194.759 220.225H196.709L199.26 227.5H197.604L196.438 223.99C196.296 223.537 196.153 223.041 196.009 222.501C195.865 221.962 195.714 221.374 195.554 220.738H195.877C195.723 221.377 195.578 221.968 195.443 222.51C195.309 223.053 195.174 223.546 195.04 223.99L193.916 227.5H192.27ZM193.825 225.812V224.642H197.706V225.812H193.825ZM201.155 227.5V220.225H202.647V226.263H205.785V227.5H201.155Z" fill="#464555"/>
</g>
<defs>
<filter id="filter0_d_1_185" x="0" y="0" width="368" height="484" filterUnits="userSpaceOnUse" color-interpolation-filters="sRGB">
<feFlood flood-opacity="0" result="BackgroundImageFix"/>
<feColorMatrix in="SourceAlpha" type="matrix" values="0 0 0 0 0 0 0 0 0 0 0 0 0 0 0 0 0 0 127 0" result="hardAlpha"/>
<feOffset dy="12"/>
<feGaussianBlur stdDeviation="16"/>
<feComposite in2="hardAlpha" operator="out"/>
<feColorMatrix type="matrix" values="0 0 0 0 0.0980392 0 0 0 0 0.109804 0 0 0 0 0.113725 0 0 0 0.04 0"/>
<feBlend mode="normal" in2="BackgroundImageFix" result="effect1_dropShadow_1_185"/>
<feBlend mode="normal" in="SourceGraphic" in2="effect1_dropShadow_1_185" result="shape"/>
</filter>
</defs>
</svg>
