<svg width="208" height="116" viewBox="0 0 208 116" fill="none" xmlns="http://www.w3.org/2000/svg">
<rect width="208" height="116" rx="12" fill="#4F46E5"/>
<g opacity="0.8">
<path d="M21.7188 21.5653C21.6733 21.1619 21.4858 20.8494 21.1562 20.6278C20.8267 20.4034 20.4119 20.2912 19.9119 20.2912C19.554 20.2912 19.2443 20.348 18.983 20.4616C18.7216 20.5724 18.5185 20.7259 18.3736 20.9219C18.2315 21.1151 18.1605 21.3352 18.1605 21.5824C18.1605 21.7898 18.2088 21.9687 18.3054 22.1193C18.4048 22.2699 18.5341 22.3963 18.6932 22.4986C18.8551 22.598 19.0284 22.6818 19.2131 22.75C19.3977 22.8153 19.5753 22.8693 19.7457 22.9119L20.598 23.1335C20.8764 23.2017 21.1619 23.294 21.4545 23.4105C21.7472 23.527 22.0185 23.6804 22.2685 23.8707C22.5185 24.0611 22.7202 24.2969 22.8736 24.5781C23.0298 24.8594 23.108 25.196 23.108 25.5881C23.108 26.0824 22.9801 26.5213 22.7244 26.9048C22.4716 27.2884 22.1037 27.5909 21.6207 27.8125C21.1406 28.0341 20.5597 28.1449 19.8778 28.1449C19.2244 28.1449 18.6591 28.0412 18.1818 27.8338C17.7045 27.6264 17.331 27.3324 17.0611 26.9517C16.7912 26.5682 16.642 26.1136 16.6136 25.5881H17.9347C17.9602 25.9034 18.0625 26.1662 18.2415 26.3764C18.4233 26.5838 18.6548 26.7386 18.9361 26.8409C19.2202 26.9403 19.5312 26.9901 19.8693 26.9901C20.2415 26.9901 20.5724 26.9318 20.8622 26.8153C21.1548 26.696 21.3849 26.5312 21.5526 26.321C21.7202 26.108 21.804 25.8594 21.804 25.5753C21.804 25.3168 21.7301 25.1051 21.5824 24.9403C21.4375 24.7756 21.2401 24.6392 20.9901 24.5312C20.7429 24.4233 20.4631 24.3281 20.1506 24.2457L19.1193 23.9645C18.4205 23.7741 17.8665 23.4943 17.4574 23.125C17.0511 22.7557 16.848 22.267 16.848 21.6591C16.848 21.1562 16.9844 20.7173 17.2571 20.3423C17.5298 19.9673 17.8991 19.6761 18.3651 19.4688C18.831 19.2585 19.3565 19.1534 19.9418 19.1534C20.5327 19.1534 21.054 19.2571 21.5057 19.4645C21.9602 19.6719 22.3182 19.9574 22.5795 20.321C22.8409 20.6818 22.9773 21.0966 22.9886 21.5653H21.7188ZM28.3255 25.2855V21.4545H29.6039V28H28.3511V26.8665H28.2829C28.1323 27.2159 27.8908 27.5071 27.5585 27.7401C27.2289 27.9702 26.8184 28.0852 26.3269 28.0852C25.9065 28.0852 25.5343 27.9929 25.2104 27.8082C24.8894 27.6207 24.6366 27.3438 24.4519 26.9773C24.2701 26.6108 24.1792 26.1577 24.1792 25.6179V21.4545H25.4533V25.4645C25.4533 25.9105 25.5769 26.2656 25.8241 26.5298C26.0712 26.794 26.3923 26.9261 26.7871 26.9261C27.0258 26.9261 27.263 26.8665 27.4988 26.7472C27.7374 26.6278 27.9349 26.4474 28.0911 26.206C28.2502 25.9645 28.3283 25.6577 28.3255 25.2855ZM30.9159 30.4545V21.4545H32.1602V22.5156H32.2668C32.3406 22.3793 32.4472 22.2216 32.5864 22.0426C32.7256 21.8636 32.9187 21.7074 33.1659 21.5739C33.4131 21.4375 33.7398 21.3693 34.146 21.3693C34.6744 21.3693 35.146 21.5028 35.5608 21.7699C35.9756 22.0369 36.3009 22.4219 36.5366 22.9247C36.7753 23.4276 36.8946 24.0327 36.8946 24.7401C36.8946 25.4474 36.7767 26.054 36.5409 26.5597C36.3051 27.0625 35.9813 27.4503 35.5693 27.723C35.1574 27.9929 34.6872 28.1278 34.1588 28.1278C33.7611 28.1278 33.4358 28.0611 33.183 27.9276C32.933 27.794 32.7369 27.6378 32.5949 27.4588C32.4528 27.2798 32.3435 27.1207 32.2668 26.9815H32.1901V30.4545H30.9159ZM32.1645 24.7273C32.1645 25.1875 32.2312 25.5909 32.3648 25.9375C32.4983 26.2841 32.6915 26.5554 32.9443 26.7514C33.1972 26.9446 33.5068 27.0412 33.8733 27.0412C34.254 27.0412 34.5722 26.9403 34.8278 26.7386C35.0835 26.5341 35.2767 26.2571 35.4074 25.9077C35.5409 25.5582 35.6077 25.1648 35.6077 24.7273C35.6077 24.2955 35.5423 23.9077 35.4116 23.5639C35.2838 23.2202 35.0906 22.9489 34.8321 22.75C34.5764 22.5511 34.2568 22.4517 33.8733 22.4517C33.504 22.4517 33.1915 22.5469 32.9358 22.7372C32.683 22.9276 32.4912 23.1932 32.3605 23.5341C32.2298 23.875 32.1645 24.2727 32.1645 24.7273ZM37.9222 30.4545V21.4545H39.1665V22.5156H39.273C39.3469 22.3793 39.4534 22.2216 39.5926 22.0426C39.7318 21.8636 39.925 21.7074 40.1722 21.5739C40.4193 21.4375 40.746 21.3693 41.1523 21.3693C41.6807 21.3693 42.1523 21.5028 42.567 21.7699C42.9818 22.0369 43.3071 22.4219 43.5429 22.9247C43.7815 23.4276 43.9009 24.0327 43.9009 24.7401C43.9009 25.4474 43.783 26.054 43.5472 26.5597C43.3114 27.0625 42.9875 27.4503 42.5756 27.723C42.1636 27.9929 41.6935 28.1278 41.1651 28.1278C40.7673 28.1278 40.442 28.0611 40.1892 27.9276C39.9392 27.794 39.7432 27.6378 39.6011 27.4588C39.4591 27.2798 39.3497 27.1207 39.273 26.9815H39.1963V30.4545H37.9222ZM39.1707 24.7273C39.1707 25.1875 39.2375 25.5909 39.371 25.9375C39.5045 26.2841 39.6977 26.5554 39.9506 26.7514C40.2034 26.9446 40.5131 27.0412 40.8795 27.0412C41.2602 27.0412 41.5784 26.9403 41.8341 26.7386C42.0898 26.5341 42.283 26.2571 42.4136 25.9077C42.5472 25.5582 42.6139 25.1648 42.6139 24.7273C42.6139 24.2955 42.5486 23.9077 42.4179 23.5639C42.2901 23.2202 42.0969 22.9489 41.8384 22.75C41.5827 22.5511 41.2631 22.4517 40.8795 22.4517C40.5102 22.4517 40.1977 22.5469 39.942 22.7372C39.6892 22.9276 39.4974 23.1932 39.3668 23.5341C39.2361 23.875 39.1707 24.2727 39.1707 24.7273ZM47.6855 28.1321C47.0719 28.1321 46.5364 27.9915 46.079 27.7102C45.6216 27.429 45.2665 27.0355 45.0136 26.5298C44.7608 26.0241 44.6344 25.4332 44.6344 24.7571C44.6344 24.0781 44.7608 23.4844 45.0136 22.9759C45.2665 22.4673 45.6216 22.0724 46.079 21.7912C46.5364 21.5099 47.0719 21.3693 47.6855 21.3693C48.2991 21.3693 48.8347 21.5099 49.292 21.7912C49.7494 22.0724 50.1045 22.4673 50.3574 22.9759C50.6102 23.4844 50.7366 24.0781 50.7366 24.7571C50.7366 25.4332 50.6102 26.0241 50.3574 26.5298C50.1045 27.0355 49.7494 27.429 49.292 27.7102C48.8347 27.9915 48.2991 28.1321 47.6855 28.1321ZM47.6898 27.0625C48.0875 27.0625 48.417 26.9574 48.6784 26.7472C48.9398 26.5369 49.133 26.2571 49.258 25.9077C49.3858 25.5582 49.4497 25.1733 49.4497 24.7528C49.4497 24.3352 49.3858 23.9517 49.258 23.6023C49.133 23.25 48.9398 22.9673 48.6784 22.7543C48.417 22.5412 48.0875 22.4347 47.6898 22.4347C47.2892 22.4347 46.9568 22.5412 46.6926 22.7543C46.4312 22.9673 46.2366 23.25 46.1088 23.6023C45.9838 23.9517 45.9213 24.3352 45.9213 24.7528C45.9213 25.1733 45.9838 25.5582 46.1088 25.9077C46.2366 26.2571 46.4312 26.5369 46.6926 26.7472C46.9568 26.9574 47.2892 27.0625 47.6898 27.0625ZM51.7589 28V21.4545H52.9904V22.4943H53.0586C53.1779 22.142 53.3881 21.8651 53.6893 21.6634C53.9933 21.4588 54.337 21.3565 54.7205 21.3565C54.8001 21.3565 54.8938 21.3594 55.0018 21.3651C55.1126 21.3707 55.1992 21.3778 55.2617 21.3864V22.6051C55.2106 22.5909 55.1197 22.5753 54.989 22.5582C54.8583 22.5384 54.7276 22.5284 54.5969 22.5284C54.2958 22.5284 54.0273 22.5923 53.7915 22.7202C53.5586 22.8452 53.3739 23.0199 53.2376 23.2443C53.1012 23.4659 53.033 23.7187 53.033 24.0028V28H51.7589ZM59.4065 21.4545V22.4773H55.8312V21.4545H59.4065ZM56.79 19.8864H58.0641V26.0781C58.0641 26.3253 58.1011 26.5114 58.1749 26.6364C58.2488 26.7585 58.344 26.8423 58.4604 26.8878C58.5798 26.9304 58.709 26.9517 58.8482 26.9517C58.9505 26.9517 59.04 26.9446 59.1167 26.9304C59.1934 26.9162 59.2531 26.9048 59.2957 26.8963L59.5258 27.9489C59.4519 27.9773 59.3468 28.0057 59.2104 28.0341C59.0741 28.0653 58.9036 28.0824 58.6991 28.0852C58.3638 28.0909 58.0513 28.0312 57.7616 27.9062C57.4718 27.7812 57.2374 27.5881 57.0585 27.3267C56.8795 27.0653 56.79 26.7372 56.79 26.3423V19.8864ZM63.294 28V19.2727H66.4048C67.0837 19.2727 67.6462 19.3963 68.0923 19.6435C68.5383 19.8906 68.8721 20.2287 69.0937 20.6577C69.3153 21.0838 69.4261 21.5639 69.4261 22.098C69.4261 22.6349 69.3138 23.1179 69.0894 23.5469C68.8678 23.973 68.5326 24.3111 68.0837 24.5611C67.6377 24.8082 67.0766 24.9318 66.4005 24.9318H64.2613V23.8153H66.2812C66.7102 23.8153 67.0582 23.7415 67.3252 23.5938C67.5923 23.4432 67.7883 23.2386 67.9133 22.9801C68.0383 22.7216 68.1008 22.4276 68.1008 22.098C68.1008 21.7685 68.0383 21.4759 67.9133 21.2202C67.7883 20.9645 67.5908 20.7642 67.321 20.6193C67.0539 20.4744 66.7016 20.402 66.2641 20.402H64.6107V28H63.294ZM71.7416 19.2727V28H70.4675V19.2727H71.7416ZM74.9606 28.1449C74.5458 28.1449 74.1708 28.0682 73.8356 27.9148C73.5004 27.7585 73.2347 27.5327 73.0387 27.2372C72.8455 26.9418 72.7489 26.5795 72.7489 26.1506C72.7489 25.7812 72.82 25.4773 72.962 25.2386C73.104 25 73.2958 24.8111 73.5373 24.6719C73.7788 24.5327 74.0487 24.4276 74.3469 24.3565C74.6452 24.2855 74.9492 24.2315 75.2589 24.1946C75.6509 24.1491 75.9691 24.1122 76.2134 24.0838C76.4577 24.0526 76.6353 24.0028 76.7461 23.9347C76.8569 23.8665 76.9123 23.7557 76.9123 23.6023V23.5724C76.9123 23.2003 76.8072 22.9119 76.5969 22.7074C76.3896 22.5028 76.0799 22.4006 75.668 22.4006C75.239 22.4006 74.9009 22.4957 74.6538 22.6861C74.4094 22.8736 74.2404 23.0824 74.1467 23.3125L72.9492 23.0398C73.0913 22.642 73.2987 22.321 73.5714 22.0767C73.8469 21.8295 74.1637 21.6506 74.5217 21.5398C74.8796 21.4261 75.256 21.3693 75.6509 21.3693C75.9123 21.3693 76.1893 21.4006 76.4819 21.4631C76.7773 21.5227 77.0529 21.6335 77.3086 21.7955C77.5671 21.9574 77.7788 22.1889 77.9435 22.4901C78.1083 22.7884 78.1907 23.1761 78.1907 23.6534V28H76.9464V27.1051H76.8952C76.8129 27.2699 76.6893 27.4318 76.5245 27.5909C76.3597 27.75 76.1481 27.8821 75.8896 27.9872C75.631 28.0923 75.3214 28.1449 74.9606 28.1449ZM75.2376 27.1222C75.5898 27.1222 75.891 27.0526 76.141 26.9134C76.3938 26.7741 76.5856 26.5923 76.7163 26.3679C76.8498 26.1406 76.9165 25.8977 76.9165 25.6392V24.7955C76.8711 24.8409 76.783 24.8835 76.6523 24.9233C76.5245 24.9602 76.3782 24.9929 76.2134 25.0213C76.0487 25.0469 75.8881 25.071 75.7319 25.0938C75.5756 25.1136 75.445 25.1307 75.3398 25.1449C75.0927 25.1761 74.8668 25.2287 74.6623 25.3026C74.4606 25.3764 74.2987 25.483 74.1765 25.6222C74.0572 25.7585 73.9975 25.9403 73.9975 26.1676C73.9975 26.483 74.114 26.7216 74.3469 26.8835C74.5799 27.0426 74.8768 27.1222 75.2376 27.1222ZM80.7619 24.1136V28H79.4878V21.4545H80.7108V22.5199H80.7918C80.9423 22.1733 81.1781 21.8949 81.4991 21.6847C81.823 21.4744 82.2307 21.3693 82.7222 21.3693C83.1682 21.3693 83.5588 21.4631 83.894 21.6506C84.2293 21.8352 84.4892 22.1108 84.6739 22.4773C84.8585 22.8437 84.9509 23.2969 84.9509 23.8366V28H83.6767V23.9901C83.6767 23.5156 83.5531 23.1449 83.306 22.8778C83.0588 22.608 82.7193 22.473 82.2875 22.473C81.992 22.473 81.7293 22.5369 81.4991 22.6648C81.2719 22.7926 81.0915 22.9801 80.958 23.2273C80.8273 23.4716 80.7619 23.767 80.7619 24.1136Z" fill="white"/>
</g>
<path d="M16.8849 51V40.8182H23.7457V42.593H19.0376V45.0192H23.3928V46.794H19.0376V49.2251H23.7656V51H16.8849ZM27.1353 46.5852V51H25.0174V43.3636H27.0359V44.7109H27.1254C27.2944 44.2668 27.5778 43.9155 27.9755 43.657C28.3733 43.3951 28.8555 43.2642 29.4223 43.2642C29.9526 43.2642 30.4149 43.3802 30.8093 43.6122C31.2038 43.8442 31.5103 44.1757 31.7291 44.6065C31.9478 45.0341 32.0572 45.5445 32.0572 46.1378V51H29.9393V46.5156C29.9426 46.0483 29.8233 45.6837 29.5814 45.4219C29.3394 45.1567 29.0063 45.0241 28.5821 45.0241C28.297 45.0241 28.0451 45.0855 27.8264 45.2081C27.6109 45.3307 27.4419 45.5097 27.3193 45.745C27.2 45.977 27.1386 46.2571 27.1353 46.5852ZM37.3882 43.3636V44.9545H32.7895V43.3636H37.3882ZM33.8335 41.5341H35.9514V48.6534C35.9514 48.849 35.9813 49.0014 36.0409 49.1108C36.1006 49.2169 36.1834 49.2914 36.2895 49.3345C36.3989 49.3776 36.5248 49.3991 36.6673 49.3991C36.7668 49.3991 36.8662 49.3909 36.9656 49.3743C37.0651 49.3544 37.1413 49.3395 37.1943 49.3295L37.5274 50.9055C37.4214 50.9387 37.2722 50.9768 37.08 51.0199C36.8877 51.0663 36.6541 51.0945 36.379 51.1044C35.8686 51.1243 35.4211 51.0563 35.0366 50.9006C34.6555 50.7448 34.3589 50.5028 34.1467 50.1747C33.9346 49.8466 33.8302 49.4323 33.8335 48.9318V41.5341ZM41.7659 51.1491C40.9804 51.1491 40.3043 50.9901 39.7375 50.6719C39.1741 50.3504 38.7399 49.8963 38.4349 49.3097C38.13 48.7197 37.9776 48.022 37.9776 47.2166C37.9776 46.4311 38.13 45.7417 38.4349 45.1484C38.7399 44.5552 39.1691 44.0928 39.7226 43.7614C40.2794 43.4299 40.9323 43.2642 41.6814 43.2642C42.1852 43.2642 42.6542 43.3454 43.0884 43.5078C43.5259 43.6669 43.907 43.9072 44.2318 44.2287C44.5599 44.5502 44.8152 44.9545 44.9974 45.4418C45.1797 45.9257 45.2709 46.4924 45.2709 47.142V47.7237H38.8227V46.4112H43.2773C43.2773 46.1063 43.211 45.8362 43.0784 45.6009C42.9458 45.3655 42.7619 45.1816 42.5266 45.049C42.2946 44.9131 42.0244 44.8452 41.7162 44.8452C41.3947 44.8452 41.1097 44.9197 40.8611 45.0689C40.6158 45.2147 40.4236 45.4119 40.2844 45.6605C40.1452 45.9058 40.0739 46.1792 40.0706 46.4808V47.7287C40.0706 48.1065 40.1402 48.433 40.2794 48.7081C40.4219 48.9832 40.6224 49.1953 40.881 49.3445C41.1395 49.4936 41.4461 49.5682 41.8007 49.5682C42.036 49.5682 42.2515 49.535 42.447 49.4688C42.6426 49.4025 42.8099 49.303 42.9491 49.1705C43.0884 49.0379 43.1944 48.8755 43.2673 48.6832L45.2261 48.8125C45.1267 49.2831 44.9229 49.6941 44.6146 50.0455C44.3097 50.3935 43.9153 50.6652 43.4314 50.8608C42.9508 51.053 42.3956 51.1491 41.7659 51.1491ZM46.253 51V43.3636H48.3062V44.696H48.3858C48.525 44.2221 48.7587 43.8641 49.0868 43.6222C49.4149 43.3769 49.7928 43.2543 50.2203 43.2543C50.3264 43.2543 50.4407 43.2609 50.5634 43.2741C50.686 43.2874 50.7937 43.3056 50.8865 43.3288V45.2081C50.7871 45.1783 50.6495 45.1518 50.4739 45.1286C50.2982 45.1054 50.1375 45.0938 49.9916 45.0938C49.6801 45.0938 49.4017 45.1617 49.1564 45.2976C48.9144 45.4302 48.7222 45.6158 48.5797 45.8544C48.4405 46.093 48.3709 46.3681 48.3709 46.6797V51H46.253ZM51.5815 53.8636V43.3636H53.6696V44.6463H53.764C53.8568 44.4408 53.9911 44.232 54.1667 44.0199C54.3457 43.8045 54.5777 43.6255 54.8627 43.483C55.1511 43.3371 55.5091 43.2642 55.9366 43.2642C56.4934 43.2642 57.0072 43.41 57.4778 43.7017C57.9484 43.9901 58.3246 44.4259 58.6064 45.0092C58.8881 45.5893 59.0289 46.3168 59.0289 47.1918C59.0289 48.0436 58.8914 48.7628 58.6163 49.3494C58.3445 49.9328 57.9733 50.3752 57.5027 50.6768C57.0353 50.9751 56.5117 51.1243 55.9316 51.1243C55.5207 51.1243 55.171 51.0563 54.8826 50.9205C54.5976 50.7846 54.3639 50.6139 54.1816 50.4084C53.9993 50.1996 53.8601 49.9891 53.764 49.777H53.6994V53.8636H51.5815ZM53.6547 47.1818C53.6547 47.6359 53.7176 48.032 53.8436 48.37C53.9695 48.7081 54.1518 48.9716 54.3904 49.1605C54.6291 49.3461 54.9191 49.4389 55.2605 49.4389C55.6052 49.4389 55.8968 49.3445 56.1355 49.1555C56.3741 48.9633 56.5547 48.6982 56.6774 48.3601C56.8033 48.0187 56.8663 47.6259 56.8663 47.1818C56.8663 46.741 56.805 46.3532 56.6824 46.0185C56.5597 45.6837 56.3791 45.4219 56.1404 45.233C55.9018 45.044 55.6085 44.9496 55.2605 44.9496C54.9158 44.9496 54.6241 45.0407 54.3855 45.223C54.1502 45.4053 53.9695 45.6638 53.8436 45.9986C53.7176 46.3333 53.6547 46.7277 53.6547 47.1818ZM60.0409 51V43.3636H62.0941V44.696H62.1737C62.3129 44.2221 62.5466 43.8641 62.8747 43.6222C63.2028 43.3769 63.5806 43.2543 64.0082 43.2543C64.1143 43.2543 64.2286 43.2609 64.3512 43.2741C64.4739 43.2874 64.5816 43.3056 64.6744 43.3288V45.2081C64.575 45.1783 64.4374 45.1518 64.2618 45.1286C64.0861 45.1054 63.9253 45.0938 63.7795 45.0938C63.468 45.0938 63.1895 45.1617 62.9443 45.2976C62.7023 45.4302 62.5101 45.6158 62.3676 45.8544C62.2284 46.093 62.1588 46.3681 62.1588 46.6797V51H60.0409ZM65.3694 51V43.3636H67.4873V51H65.3694ZM66.4333 42.3793C66.1184 42.3793 65.8483 42.2749 65.6229 42.0661C65.4009 41.8539 65.2898 41.6004 65.2898 41.3054C65.2898 41.0137 65.4009 40.7635 65.6229 40.5547C65.8483 40.3426 66.1184 40.2365 66.4333 40.2365C66.7482 40.2365 67.0166 40.3426 67.2387 40.5547C67.4641 40.7635 67.5768 41.0137 67.5768 41.3054C67.5768 41.6004 67.4641 41.8539 67.2387 42.0661C67.0166 42.2749 66.7482 42.3793 66.4333 42.3793ZM75.1375 45.5412L73.1986 45.6605C73.1655 45.4948 73.0942 45.3456 72.9848 45.2131C72.8755 45.0772 72.7313 44.9695 72.5523 44.8899C72.3766 44.8071 72.1662 44.7656 71.9209 44.7656C71.5928 44.7656 71.316 44.8352 71.0907 44.9744C70.8653 45.1103 70.7526 45.2926 70.7526 45.5213C70.7526 45.7036 70.8255 45.8577 70.9713 45.9837C71.1172 46.1096 71.3674 46.2107 71.7221 46.2869L73.1042 46.5653C73.8466 46.7178 74.4001 46.9631 74.7647 47.3011C75.1292 47.6392 75.3115 48.0833 75.3115 48.6335C75.3115 49.134 75.1641 49.5732 74.8691 49.951C74.5774 50.3288 74.1764 50.6238 73.6659 50.8359C73.1588 51.0447 72.5739 51.1491 71.911 51.1491C70.9001 51.1491 70.0947 50.9387 69.4948 50.5178C68.8982 50.0935 68.5485 49.5168 68.4458 48.7876L70.5289 48.6783C70.5918 48.9865 70.7443 49.2218 70.9863 49.3842C71.2282 49.5433 71.5381 49.6229 71.9159 49.6229C72.2872 49.6229 72.5855 49.5516 72.8108 49.4091C73.0395 49.2633 73.1555 49.076 73.1588 48.8473C73.1555 48.6551 73.0743 48.4976 72.9152 48.375C72.7561 48.2491 72.5109 48.1529 72.1794 48.0866L70.857 47.8232C70.1113 47.674 69.5561 47.4155 69.1915 47.0476C68.8302 46.6797 68.6496 46.2107 68.6496 45.6406C68.6496 45.1501 68.7822 44.7275 69.0473 44.3729C69.3158 44.0182 69.692 43.7448 70.1759 43.5526C70.6631 43.3603 71.2332 43.2642 71.8861 43.2642C72.8506 43.2642 73.6096 43.468 74.1631 43.8757C74.7199 44.2834 75.0447 44.8385 75.1375 45.5412ZM79.7253 51.1491C78.9398 51.1491 78.2636 50.9901 77.6969 50.6719C77.1334 50.3504 76.6992 49.8963 76.3943 49.3097C76.0894 48.7197 75.9369 48.022 75.9369 47.2166C75.9369 46.4311 76.0894 45.7417 76.3943 45.1484C76.6992 44.5552 77.1285 44.0928 77.682 43.7614C78.2388 43.4299 78.8917 43.2642 79.6408 43.2642C80.1446 43.2642 80.6135 43.3454 81.0477 43.5078C81.4852 43.6669 81.8664 43.9072 82.1912 44.2287C82.5193 44.5502 82.7745 44.9545 82.9568 45.4418C83.1391 45.9257 83.2303 46.4924 83.2303 47.142V47.7237H76.7821V46.4112H81.2366C81.2366 46.1063 81.1704 45.8362 81.0378 45.6009C80.9052 45.3655 80.7213 45.1816 80.4859 45.049C80.2539 44.9131 79.9838 44.8452 79.6756 44.8452C79.3541 44.8452 79.069 44.9197 78.8205 45.0689C78.5752 45.2147 78.383 45.4119 78.2438 45.6605C78.1045 45.9058 78.0333 46.1792 78.03 46.4808V47.7287C78.03 48.1065 78.0996 48.433 78.2388 48.7081C78.3813 48.9832 78.5818 49.1953 78.8403 49.3445C79.0989 49.4936 79.4054 49.5682 79.7601 49.5682C79.9954 49.5682 80.2108 49.535 80.4064 49.4688C80.6019 49.4025 80.7693 49.303 80.9085 49.1705C81.0477 49.0379 81.1538 48.8755 81.2267 48.6832L83.1855 48.8125C83.0861 49.2831 82.8822 49.6941 82.574 50.0455C82.2691 50.3935 81.8747 50.6652 81.3908 50.8608C80.9102 51.053 80.355 51.1491 79.7253 51.1491ZM87.0924 51V40.8182H93.9532V42.593H89.2451V45.0192H93.6002V46.794H89.2451V49.2251H93.973V51H87.0924ZM97.3428 40.8182V51H95.2249V40.8182H97.3428ZM98.6393 51V43.3636H100.757V51H98.6393ZM99.7032 42.3793C99.3884 42.3793 99.1182 42.2749 98.8929 42.0661C98.6708 41.8539 98.5598 41.6004 98.5598 41.3054C98.5598 41.0137 98.6708 40.7635 98.8929 40.5547C99.1182 40.3426 99.3884 40.2365 99.7032 40.2365C100.018 40.2365 100.287 40.3426 100.509 40.5547C100.734 40.7635 100.847 41.0137 100.847 41.3054C100.847 41.6004 100.734 41.8539 100.509 42.0661C100.287 42.2749 100.018 42.3793 99.7032 42.3793ZM106.116 43.3636V44.9545H101.517V43.3636H106.116ZM102.561 41.5341H104.679V48.6534C104.679 48.849 104.709 49.0014 104.768 49.1108C104.828 49.2169 104.911 49.2914 105.017 49.3345C105.126 49.3776 105.252 49.3991 105.395 49.3991C105.494 49.3991 105.594 49.3909 105.693 49.3743C105.792 49.3544 105.869 49.3395 105.922 49.3295L106.255 50.9055C106.149 50.9387 106 50.9768 105.807 51.0199C105.615 51.0663 105.381 51.0945 105.106 51.1044C104.596 51.1243 104.148 51.0563 103.764 50.9006C103.383 50.7448 103.086 50.5028 102.874 50.1747C102.662 49.8466 102.558 49.4323 102.561 48.9318V41.5341ZM110.493 51.1491C109.708 51.1491 109.032 50.9901 108.465 50.6719C107.901 50.3504 107.467 49.8963 107.162 49.3097C106.857 48.7197 106.705 48.022 106.705 47.2166C106.705 46.4311 106.857 45.7417 107.162 45.1484C107.467 44.5552 107.896 44.0928 108.45 43.7614C109.007 43.4299 109.66 43.2642 110.409 43.2642C110.913 43.2642 111.382 43.3454 111.816 43.5078C112.253 43.6669 112.634 43.9072 112.959 44.2287C113.287 44.5502 113.542 44.9545 113.725 45.4418C113.907 45.9257 113.998 46.4924 113.998 47.142V47.7237H107.55V46.4112H112.005C112.005 46.1063 111.938 45.8362 111.806 45.6009C111.673 45.3655 111.489 45.1816 111.254 45.049C111.022 44.9131 110.752 44.8452 110.444 44.8452C110.122 44.8452 109.837 44.9197 109.588 45.0689C109.343 45.2147 109.151 45.4119 109.012 45.6605C108.873 45.9058 108.801 46.1792 108.798 46.4808V47.7287C108.798 48.1065 108.868 48.433 109.007 48.7081C109.149 48.9832 109.35 49.1953 109.608 49.3445C109.867 49.4936 110.173 49.5682 110.528 49.5682C110.763 49.5682 110.979 49.535 111.174 49.4688C111.37 49.4025 111.537 49.303 111.676 49.1705C111.816 49.0379 111.922 48.8755 111.995 48.6832L113.953 48.8125C113.854 49.2831 113.65 49.6941 113.342 50.0455C113.037 50.3935 112.643 50.6652 112.159 50.8608C111.678 51.053 111.123 51.1491 110.493 51.1491Z" fill="white"/>
<rect x="16" y="68" width="176" height="32" rx="8" fill="white" fill-opacity="0.2"/>
<path d="M84.4256 88.1216C83.7043 88.1216 83.0731 87.9885 82.532 87.7221C81.9909 87.4557 81.5708 87.0834 81.2716 86.6052C80.9724 86.1269 80.8228 85.5711 80.8228 84.9375V79.2695H82.6133V84.7895C82.6133 85.1294 82.6887 85.4308 82.8394 85.6937C82.9901 85.9566 83.201 86.1633 83.472 86.3139C83.7429 86.4645 84.0608 86.5398 84.4256 86.5398C84.7924 86.5398 85.1114 86.4645 85.3825 86.3139C85.6537 86.1633 85.8642 85.9566 86.014 85.6937C86.1638 85.4308 86.2388 85.1294 86.2388 84.7895V79.2695H88.0292V84.9375C88.0292 85.5711 87.8791 86.1269 87.5788 86.6052C87.2786 87.0834 86.8583 87.4557 86.318 87.7221C85.7776 87.9885 85.1468 88.1216 84.4256 88.1216ZM89.1657 90.4492V81.4492H90.8941V82.5518H90.9796C91.0602 82.3777 91.1753 82.1991 91.325 82.0161C91.4747 81.8331 91.6729 81.6792 91.9198 81.5544C92.1666 81.4296 92.4755 81.3672 92.8464 81.3672C93.3321 81.3672 93.7756 81.4923 94.1768 81.7425C94.5781 81.9928 94.8995 82.3677 95.1411 82.8672C95.3827 83.3667 95.5035 83.9896 95.5035 84.7359C95.5035 85.4628 95.3863 86.077 95.152 86.5785C94.9176 87.08 94.5992 87.4605 94.1969 87.7199C93.7946 87.9793 93.3411 88.109 92.8365 88.109C92.4815 88.109 92.1807 88.0488 91.9342 87.9283C91.6877 87.8079 91.4876 87.659 91.334 87.4816C91.1804 87.3041 91.0623 87.1275 90.9796 86.9515H90.9229V90.4492H89.1657ZM92.2954 86.7005C92.6022 86.7005 92.8595 86.6165 93.0674 86.4485C93.2753 86.2806 93.4327 86.048 93.5398 85.7509C93.6468 85.4538 93.7003 85.1137 93.7003 84.7305C93.7003 84.347 93.6472 84.0084 93.5411 83.7149C93.435 83.4214 93.278 83.1915 93.0701 83.0252C92.8622 82.8589 92.604 82.7757 92.2954 82.7757C91.9943 82.7757 91.7387 82.8562 91.5285 83.0171C91.3184 83.178 91.1587 83.4044 91.0496 83.6961C90.9404 83.9878 90.8859 84.3326 90.8859 84.7305C90.8859 85.1241 90.9409 85.4685 91.0509 85.7637C91.161 86.0588 91.3215 86.2888 91.5326 86.4534C91.7436 86.6181 91.9979 86.7005 92.2954 86.7005ZM99.2408 90.5898C98.6953 90.5898 98.2199 90.5209 97.8147 90.3831C97.4095 90.2453 97.0797 90.0553 96.8253 89.8132C96.5708 89.571 96.3953 89.2939 96.2987 88.9818L97.8092 88.5639C97.8649 88.6847 97.95 88.8028 98.0644 88.9182C98.1789 89.0336 98.3315 89.1282 98.5225 89.2019C98.7135 89.2755 98.9508 89.3124 99.2345 89.3124C99.682 89.3124 100.034 89.2095 100.291 89.0038C100.547 88.7981 100.676 88.4785 100.676 88.0449V86.84H100.538C100.46 87.0156 100.346 87.1851 100.198 87.3486C100.049 87.512 99.8549 87.646 99.6145 87.7505C99.3742 87.8549 99.0768 87.9072 98.7225 87.9072C98.2307 87.9072 97.7832 87.7916 97.38 87.5604C96.9768 87.3293 96.6556 86.9775 96.4166 86.5052C96.1776 86.0328 96.0581 85.4359 96.0581 84.7143C96.0581 83.9752 96.1799 83.3577 96.4234 82.8618C96.667 82.3659 96.9908 81.9928 97.3949 81.7425C97.799 81.4923 98.243 81.3672 98.7269 81.3672C99.096 81.3672 99.405 81.4291 99.6538 81.553C99.9026 81.677 100.104 81.8309 100.259 82.0148C100.414 82.1987 100.531 82.3777 100.612 82.5518H100.683V81.4492H102.414V87.9453C102.414 88.5352 102.278 89.0263 102.006 89.4185C101.734 89.8107 101.36 90.104 100.883 90.2983C100.406 90.4927 99.8585 90.5898 99.2408 90.5898ZM99.2716 86.571C99.573 86.571 99.8283 86.497 100.037 86.3492C100.246 86.2013 100.406 85.9875 100.516 85.708C100.626 85.4284 100.681 85.0936 100.681 84.7035C100.681 84.3146 100.627 83.9761 100.517 83.688C100.408 83.3999 100.249 83.1758 100.04 83.0158C99.831 82.8557 99.5748 82.7757 99.2716 82.7757C98.9651 82.7757 98.707 82.8584 98.4972 83.0238C98.2873 83.1893 98.1289 83.4165 98.0219 83.7055C97.9148 83.9945 97.8613 84.3272 97.8613 84.7035C97.8613 85.0831 97.9153 85.4132 98.0232 85.6936C98.1311 85.9741 98.29 86.1904 98.4998 86.3427C98.7097 86.4949 98.9669 86.571 99.2716 86.571ZM103.512 88V81.4492H105.215V82.5899H105.286C105.405 82.1862 105.606 81.8805 105.889 81.673C106.172 81.4655 106.497 81.3618 106.865 81.3618C106.955 81.3618 107.053 81.3669 107.157 81.3771C107.261 81.3874 107.353 81.4018 107.433 81.4205V82.9905C107.355 82.9637 107.241 82.942 107.092 82.9253C106.943 82.9086 106.803 82.9003 106.673 82.9003C106.405 82.9003 106.164 82.9583 105.951 83.0744C105.738 83.1905 105.571 83.3512 105.45 83.5565C105.33 83.7618 105.269 84.0003 105.269 84.2718V88H103.512ZM109.666 88.127C109.25 88.127 108.877 88.0537 108.547 87.9069C108.218 87.7601 107.959 87.5416 107.77 87.2514C107.581 86.9612 107.487 86.6002 107.487 86.1684C107.487 85.8018 107.554 85.4961 107.688 85.2511C107.821 85.0062 108.004 84.809 108.236 84.6595C108.469 84.5099 108.733 84.3961 109.028 84.3181C109.324 84.2401 109.633 84.1858 109.957 84.1552C110.335 84.1171 110.64 84.0812 110.872 84.0475C111.105 84.0138 111.275 83.9611 111.384 83.8895C111.492 83.8178 111.547 83.7114 111.547 83.5702V83.5414C111.547 83.3544 111.507 83.1963 111.428 83.0669C111.348 82.9376 111.232 82.8385 111.08 82.7697C110.927 82.7008 110.74 82.6664 110.517 82.6664C110.293 82.6664 110.098 82.7004 109.93 82.7685C109.762 82.8367 109.625 82.9276 109.518 83.0414C109.41 83.1552 109.333 83.283 109.286 83.4248L107.675 83.1572C107.786 82.7757 107.972 82.452 108.234 82.1863C108.496 81.9205 108.821 81.7176 109.211 81.5774C109.6 81.4373 110.037 81.3672 110.523 81.3672C110.874 81.3672 111.216 81.4088 111.548 81.4922C111.88 81.5755 112.178 81.7058 112.442 81.8832C112.706 82.0605 112.916 82.2899 113.071 82.5712C113.226 82.8525 113.304 83.1921 113.304 83.5899V88H111.637V87.0904H111.579C111.474 87.2934 111.333 87.4727 111.157 87.6285C110.981 87.7843 110.77 87.9063 110.523 87.9946C110.276 88.0829 109.99 88.127 109.666 88.127ZM110.161 86.8948C110.437 86.8948 110.68 86.8397 110.89 86.7296C111.099 86.6194 111.263 86.4707 111.382 86.2835C111.5 86.0964 111.559 85.8879 111.559 85.6581V84.9493C111.506 84.9853 111.427 85.0191 111.322 85.0506C111.218 85.0821 111.101 85.1103 110.973 85.1352C110.844 85.1602 110.717 85.1818 110.592 85.2001C110.467 85.2184 110.355 85.2345 110.258 85.2483C110.042 85.2775 109.852 85.327 109.688 85.3968C109.525 85.4667 109.398 85.56 109.307 85.677C109.216 85.7939 109.171 85.9405 109.171 86.1167C109.171 86.2863 109.214 86.4288 109.299 86.5442C109.385 86.6596 109.502 86.7469 109.65 86.8061C109.798 86.8652 109.969 86.8948 110.161 86.8948ZM116.797 88.109C116.296 88.109 115.843 87.9793 115.439 87.7199C115.035 87.4605 114.716 87.08 114.481 86.5785C114.247 86.077 114.13 85.4628 114.13 84.7359C114.13 83.9896 114.25 83.3667 114.492 82.8672C114.734 82.3677 115.056 81.9928 115.459 81.7425C115.862 81.4923 116.305 81.3672 116.787 81.3672C117.158 81.3672 117.466 81.4296 117.713 81.5544C117.96 81.6792 118.159 81.8331 118.311 82.0161C118.463 82.1991 118.577 82.3777 118.653 82.5518H118.71V79.2695H120.467V88H118.739V86.9515H118.653C118.573 87.1275 118.455 87.3041 118.3 87.4816C118.146 87.659 117.946 87.8079 117.702 87.9283C117.457 88.0488 117.156 88.109 116.797 88.109ZM117.338 86.7005C117.637 86.7005 117.892 86.6181 118.102 86.4534C118.312 86.2888 118.472 86.0588 118.582 85.7637C118.692 85.4685 118.747 85.1241 118.747 84.7305C118.747 84.3326 118.693 83.9878 118.584 83.6961C118.474 83.4044 118.315 83.178 118.105 83.0171C117.894 82.8562 117.639 82.7757 117.338 82.7757C117.031 82.7757 116.774 82.8589 116.565 83.0252C116.356 83.1915 116.198 83.4214 116.092 83.7149C115.986 84.0084 115.933 84.347 115.933 84.7305C115.933 85.1137 115.986 85.4538 116.093 85.7509C116.2 86.048 116.359 86.2806 116.569 86.4485C116.778 86.6165 117.035 86.7005 117.338 86.7005ZM124.529 88.128C123.86 88.128 123.284 87.991 122.799 87.7172C122.315 87.4433 121.943 87.0544 121.684 86.5505C121.424 86.0466 121.294 85.4492 121.294 84.7584C121.294 84.0844 121.423 83.4931 121.681 82.9845C121.939 82.476 122.304 82.0793 122.776 81.7945C123.248 81.5096 123.803 81.3672 124.441 81.3672C124.868 81.3672 125.268 81.4354 125.64 81.5717C126.011 81.708 126.338 81.9136 126.618 82.1884C126.899 82.4633 127.118 82.8086 127.276 83.2245C127.434 83.6404 127.512 84.1289 127.512 84.69V85.1833H122.015V84.0775H126.656L125.835 84.374C125.835 84.0329 125.783 83.7365 125.679 83.4848C125.574 83.2331 125.42 83.0378 125.216 82.899C125.011 82.7601 124.757 82.6907 124.453 82.6907C124.149 82.6907 123.892 82.761 123.68 82.9017C123.468 83.0423 123.307 83.2331 123.197 83.474C123.086 83.7149 123.031 83.9889 123.031 84.2958V85.0743C123.031 85.4532 123.095 85.7715 123.222 86.0292C123.348 86.287 123.527 86.4806 123.757 86.6101C123.987 86.7397 124.253 86.8044 124.557 86.8044C124.762 86.8044 124.948 86.7752 125.116 86.7168C125.284 86.6584 125.428 86.572 125.549 86.4574C125.669 86.3429 125.761 86.2017 125.824 86.0339L127.413 86.3278C127.308 86.6897 127.124 87.0057 126.863 87.2757C126.602 87.5458 126.275 87.7553 125.881 87.9044C125.488 88.0534 125.037 88.128 124.529 88.128Z" fill="white"/>
</svg>
