<svg width="40" height="40" viewBox="0 0 40 40" fill="none" xmlns="http://www.w3.org/2000/svg">
<rect width="40" height="40" rx="8" fill="#E2DFFF"/>
<path d="M10 29V17L18 11L23.375 15.05C22.9583 15.1 22.5667 15.1958 22.2 15.3375C21.8333 15.4792 21.4833 15.6667 21.15 15.9L18 13.5L12 18V27H16C16 27.0167 16 27.0333 16 27.05C16 27.0667 16 27.0833 16 27.1V29H10ZM18 29V27.1C18 26.75 18.0875 26.4208 18.2625 26.1125C18.4375 25.8042 18.675 25.5583 18.975 25.375C19.7417 24.925 20.5458 24.5833 21.3875 24.35C22.2292 24.1167 23.1 24 24 24C24.9 24 25.7708 24.1167 26.6125 24.35C27.4542 24.5833 28.2583 24.925 29.025 25.375C29.325 25.5583 29.5625 25.8042 29.7375 26.1125C29.9125 26.4208 30 26.75 30 27.1V29H18ZM20.15 27H27.85C27.2667 26.6667 26.65 26.4167 26 26.25C25.35 26.0833 24.6833 26 24 26C23.3167 26 22.65 26.0833 22 26.25C21.35 26.4167 20.7333 26.6667 20.15 27ZM24 23C23.1667 23 22.4583 22.7083 21.875 22.125C21.2917 21.5417 21 20.8333 21 20C21 19.1667 21.2917 18.4583 21.875 17.875C22.4583 17.2917 23.1667 17 24 17C24.8333 17 25.5417 17.2917 26.125 17.875C26.7083 18.4583 27 19.1667 27 20C27 20.8333 26.7083 21.5417 26.125 22.125C25.5417 22.7083 24.8333 23 24 23ZM24 21C24.2833 21 24.5208 20.9042 24.7125 20.7125C24.9042 20.5208 25 20.2833 25 20C25 19.7167 24.9042 19.4792 24.7125 19.2875C24.5208 19.0958 24.2833 19 24 19C23.7167 19 23.4792 19.0958 23.2875 19.2875C23.0958 19.4792 23 19.7167 23 20C23 20.2833 23.0958 20.5208 23.2875 20.7125C23.4792 20.9042 23.7167 21 24 21Z" fill="#3525CD"/>
</svg>
